<?xml version="1.0" standalone="no"?>
<svg viewBox="0 0 200 200" xmlns="http://www.w3.org/2000/svg">
  <path fill="#EB4747" opacity="30%" d="M40.2,-70.4C49.3,-64.3,52,-47.9,53.6,-34.5C55.3,-21,56,-10.5,58.3,1.4C60.7,13.2,64.7,26.4,59.4,33.7C54.2,40.9,39.6,42.2,28.2,49.3C16.7,56.4,8.4,69.3,-1.4,71.8C-11.2,74.2,-22.4,66.2,-35,59.8C-47.6,53.4,-61.6,48.5,-68,38.8C-74.3,29.1,-72.9,14.6,-68.3,2.6C-63.8,-9.3,-56.1,-18.6,-49.5,-27.8C-42.9,-36.9,-37.3,-45.9,-29.2,-52.6C-21.1,-59.3,-10.6,-63.7,2.5,-68C15.5,-72.3,31.1,-76.5,40.2,-70.4Z" transform="translate(100 100)" />
</svg>
