<svg height="152" viewBox="0 0 543 152" width="543" xmlns="http://www.w3.org/2000/svg"><g fill="#fd2846" fill-rule="evenodd"><path d="m89.9954405 0-47.9936996 52 57.9762591 99.955-37.9754301-99.955 47.9936991-52h42.001741l48.00199 52-99.999 99.994.003145.006-.004145-.004-.004145.004-.006855-.015-99.989-99.985 48.0019896-52z" transform="matrix(-1 0 0 1 200 0)"/><path d="m12.669692 39.9399399 1.3810565-5.9459459h9.9075791l1.3810564 5.9459459h12.6696921l-9.7274413-37.5375375h-18.55419353l-9.72744127 37.5375375zm9.066936-15.4954955h-5.5242259l2.4618833-10.5105105h.6605053zm29.7055812 15.4954955v-18.2582582c0-.8408409.2001532-1.4714715.6004594-1.8918919s.8306354-.6706707 1.2909876-.7507508c.4603521-.08008 1.1508804-.1201201 2.0715847-.1201201h.840643v21.021021h12.0091868v-18.6186186c.0400306-.7207207.260199-1.2612612.6605053-1.6216216.4003062-.3603604.840643-.5805806 1.3210105-.6606607.4803675-.08008 1.1408728-.1201201 1.9815158-.1201201h.8406431v21.021021h12.0091868v-24.024024c0-2.1621621-.9006891-3.8538538-2.7020671-5.0750751-1.801378-1.22122118-4.3132995-1.83183179-7.5357647-1.83183179-3.2224651 0-6.0546316.82082082-8.4964996 2.46246249-1.7613474-1.64164167-4.6235369-2.46246249-8.5865685-2.46246249s-7.1654814 1.22122119-9.6073494 3.66366369l-2.702067-2.76276279h-6.0045934v30.03002999zm50.3613828.9009009c2.802143 0 5.264027-.1601601 7.38565-.4804804 1.361041-.2002002 2.461883-.5405406 3.302526-1.0210211.840643-.4804804 1.651263-1.1011011 2.43186-1.8618618.780597-.7607608 1.361041-1.7817818 1.741332-3.0630631s.570437-2.7327327.570437-4.3543543c0-1.6216217-.240184-3.003003-.720552-4.1441442-.480367-1.1411411-1.300995-2.1921922-2.461883-3.1531531-2.321776-1.921922-6.725144-2.8828829-13.210105-2.8828829v-1.9219219c1.761347-.1601602 3.122388-.2402403 4.083123-.2402403 3.122389 0 6.244777.4404405 9.367166 1.3213213l1.381056-8.1681681c-3.762878-1.24124127-7.886032-1.86186189-12.369462-1.86186189-4.4834297 0-8.0261398.7007007-10.6281302 2.10210209-2.5619599 1.4014014-3.8429398 4.0540541-3.8429398 7.957958s1.2109263 6.6966967 3.632779 8.3783783c2.4218527 1.6816817 6.8352288 2.5225226 13.240128 2.5225226v1.9219219c-1.481133.1601602-3.122388.2402402-4.923766.2402402-3.9230012 0-7.5657878-.5205205-10.9283601-1.5615615l-1.5011484 8.5285285c4.0030623 1.1611612 8.486492 1.7417417 13.4502895 1.7417417zm34.989623-.2402402.540413-8.8288288c-1.32101-.0800801-2.501913-.2202202-3.54271-.4204204v-13.6936937h4.14317v-7.74774779h-4.14317v-7.80780781l-12.009186 3.00300301v4.8048048h-3.002297v7.74774779h3.002297v16.6366366c0 .960961.160122 1.8018018.480367 2.5225225.520398 1.2012012 1.801378 2.1621622 3.84294 2.8828829 1.641255.6006006 5.203981.9009009 10.688176.9009009zm19.497773.2402402c4.403368 0 8.846767-.6006006 13.330197-1.8018018l-1.441103-8.8288288c-3.802909 1.2012012-7.565787 1.8018018-11.288635 1.8018018-1.200919 0-2.401837-.06006-3.602756-.1801802v-2.1021021c6.725144 0 11.358689-.7707707 13.900634-2.3123123 2.541944-1.5415415 3.812916-4.0740741 3.812916-7.5975976 0-4.1641641-1.060811-7.007007-3.182434-8.5285285-2.121623-1.52152153-5.974571-2.28228229-11.558842-2.28228229-5.584272 0-9.627365 1.31131129-12.129279 3.93393389-2.501914 2.6226227-3.752871 6.6166167-3.752871 11.981982 0 5.3653654 1.250957 9.3593594 3.752871 11.981982s6.555014 3.9339339 12.159302 3.9339339zm-.540414-18.078078h-2.461883v-2.4624625c0-1.0810811.330253-1.7717718.990758-2.0720721s1.711309-.4504504 3.152411-.4504504h2.461884v2.4624624c0 1.0810811-.330253 1.7717718-.990758 2.0720721-.660506.3003003-1.711309.4504505-3.152412.4504505zm30.9065 17.1771771v-17.1771771c.560429-.6806807 1.611233-1.2412413 3.152412-1.6816817 1.541179-.4404405 2.792136-.6806807 3.75287-.7207207l-.720551-11.35135139c-3.562725.68068068-6.524991 2.10210209-8.886798 4.26426429l-3.302526-3.36336339h-6.004594v30.03002999zm21.359197.9009009c4.52346 0 7.665864-1.1411411 9.427211-3.4234234l2.581975 2.5225225h6.004594v-39.9399399l-12.009187.9009009v9.00900901h-6.905282c-1.961501 0-3.682818.33033029-5.163951.99099099s-2.642021 1.4914915-3.482664 2.4924925c-2.241715 2.6026026-3.362572 6.4464464-3.362572 11.5315315 0 4.1641642.860658 7.7477478 2.581975 10.7507508.920704 1.6016016 2.26173 2.8628628 4.023077 3.7837838 1.761348.9209209 3.862956 1.3813813 6.304824 1.3813813zm1.861423-8.7687687h-1.861423v-11.7717718c0-1.0810811.330252-1.7717718.990757-2.0720721.660506-.3003003 1.71131-.4504504 3.152412-.4504504h1.861424v12.1321321c-.080061.9209209-.450345 1.5115115-1.11085 1.7717718-.660505.2602602-1.671278.3903904-3.03232.3903904zm30.09588 8.7687687c1.781363 0 3.67281-.3803803 5.674341-1.1411411s3.582741-1.8218218 4.743629-3.1831832l3.422618 3.4234234h6.004593v-21.021021c0-6.6066066-4.803674-9.90990989-14.411024-9.90990989-5.244011 0-9.867548.62062062-13.87061 1.86186189l1.441102 8.5885886c3.24248-1.0810811 7.125451-1.6216217 11.648911-1.6216217.840643 0 1.901455.0400401 3.182435.1201202v2.1621621h-2.401838c-10.888329 0-16.332494 3.6036036-16.332494 10.8108108 0 3.923924 1.140873 6.6066066 3.422619 8.0480481 1.040796.6806807 2.101607 1.1611611 3.182434 1.4414414s2.511922.4204204 4.293284.4204204zm3.692825-8.7687687h-2.461883v-2.4624625c0-1.0810811.330253-1.7717718.990758-2.0720721s1.711309-.4504504 3.152411-.4504504h2.461884v2.8228228c0 .6406407-.250192 1.1611612-.750575 1.5615616-.500382.4004004-1.631247.6006006-3.392595.6006006zm32.707878 7.8678678v-18.2582582c0-.8408409.200153-1.4714715.600459-1.8918919.400307-.4204204.830636-.6706707 1.290988-.7507508.460352-.08008 1.15088-.1201201 2.071585-.1201201h.840643v21.021021h12.009187v-18.6186186c.04003-.7207207.260199-1.2612612.660505-1.6216216s.840643-.5805806 1.32101-.6606607c.480368-.08008 1.140873-.1201201 1.981516-.1201201h.840643v21.021021h12.009187v-24.024024c0-2.1621621-.900689-3.8538538-2.702067-5.0750751-1.801378-1.22122118-4.3133-1.83183179-7.535765-1.83183179s-6.054631.82082082-8.496499 2.46246249c-1.761348-1.64164167-4.623537-2.46246249-8.586569-2.46246249-3.963031 0-7.165481 1.22122119-9.607349 3.66366369l-2.702067-2.76276279h-6.004594v30.03002999zm-260.6422424 60.0600601v-11.1711712h2.5819752l4.9237666 11.1711712h13.2101054l-6.4849609-12.4924925c3.7228479-1.9219219 5.5842719-5.8858859 5.5842719-11.8918919 0-8.7687688-4.3032919-13.1531531-12.9098758-13.1531531h-18.91446911v37.5375375zm2.762113-20.4204204h-2.762113v-7.5075075h2.762113c1.4411024 0 2.4919062.1501501 3.1524115.4504504s.9907579.990991.9907579 2.0720721v2.4624625c0 1.081081-.3302526 1.7717717-.9907579 2.072072s-1.7113091.4504505-3.1524115.4504505zm42.8556407 20.4204204c3.3225417 0 5.784425-.9109109 7.3856499-2.7327327 1.6012249-1.8218219 2.4018373-4.2342343 2.4018373-7.2372373 0-5.7657657-2.4218526-9.069069-7.265558-9.9099099v-.3603603c1.6412556-.4404405 2.9522584-1.3913914 3.9330087-2.8528529.9807502-1.4614615 1.4711254-3.5335335 1.4711254-6.2162162s-.7705895-4.7247247-2.3117685-6.1261261c-1.5411789-1.4014014-4.1131464-2.1021021-7.7159025-2.1021021h-19.4548825v37.5375375zm-5.8244556-23.7237237h-3.7228478v-5.5855856h3.7828938c1.481133 0 2.2216995.9309309 2.2216995 2.7927928 0 1.8618618-.7605818 2.7927928-2.2817455 2.7927928zm.900689 14.8948949h-4.6235368v-6.1261262h4.6835828c1.6412555 0 2.4618833 1.0210211 2.4618833 3.0630631 0 2.0420421-.8406431 3.0630631-2.5219293 3.0630631z" transform="translate(233 13)"/></g></svg>