<svg height="346" viewBox="0 0 348 346" width="348" xmlns="http://www.w3.org/2000/svg" xmlns:xlink="http://www.w3.org/1999/xlink"><linearGradient id="a" x1="51.095%" x2="49.369%" y1="97.601%" y2=".987%"><stop offset=".40168" stop-color="#eb496a"/><stop offset=".99516" stop-color="#ed747b"/></linearGradient><linearGradient id="b" x1="49.998%" x2="50%" y1="96.495%" y2="3.679%"><stop offset=".00086" stop-color="#f2bda3"/><stop offset=".92681" stop-color="#cd234d"/></linearGradient><linearGradient id="c" x1="50.242%" x2="49.747%" y1="96.203%" y2="1.829%"><stop offset="0" stop-color="#ed8385"/><stop offset=".1391" stop-color="#e87f81"/><stop offset=".3034" stop-color="#da7374"/><stop offset=".48054" stop-color="#c25f60"/><stop offset=".66674" stop-color="#a14243"/><stop offset=".85799" stop-color="#761f1f"/><stop offset="1" stop-color="#520000"/></linearGradient><linearGradient id="d" x1="49.065%" x2="51.514%" y1="90.577%" y2="-15.678%"><stop offset="0" stop-color="#f9cdd9"/><stop offset=".78368" stop-color="#ee8277"/></linearGradient><linearGradient id="e" x1="50.056%" x2="49.994%" y1="89.39%" y2="-9.685%"><stop offset=".01022" stop-color="#f4b5b3"/><stop offset="1" stop-color="#ef877f"/></linearGradient><linearGradient id="f" x1="51.592%" x2="49.52%" y1="97.977%" y2=".446%"><stop offset=".00028" stop-color="#efa996" stop-opacity="0"/><stop offset=".19331" stop-color="#e1837b" stop-opacity=".291"/><stop offset=".38649" stop-color="#d56264" stop-opacity=".543"/><stop offset=".56985" stop-color="#cc4951" stop-opacity=".741"/><stop offset=".73848" stop-color="#c53644" stop-opacity=".883"/><stop offset=".88713" stop-color="#c12b3c" stop-opacity=".97"/><stop offset="1" stop-color="#c02739"/></linearGradient><linearGradient id="g" x1="50.58%" x2="49.371%" y1="96.693%" y2="-.635%"><stop offset="0" stop-color="#eb496a"/><stop offset=".99696" stop-color="#faceda"/></linearGradient><linearGradient id="h" x1="45.953%" x2="66.794%" y1="115.019%" y2="37.674%"><stop offset=".23618" stop-color="#ec5c7e"/><stop offset="1" stop-color="#eb90bd"/></linearGradient><linearGradient id="i" x1="9.881%" x2="92.056%" y1="76.581%" y2="-80.276%"><stop offset="0" stop-color="#e67bb0"/><stop offset=".54866" stop-color="#f5ab95"/></linearGradient><linearGradient id="j" x1="78.801%" x2="29.364%" y1="88.987%" y2="-2.284%"><stop offset=".03205" stop-color="#f3b6c3" stop-opacity="0"/><stop offset="1" stop-color="#d84a98"/></linearGradient><linearGradient id="k" x1="50.242%" x2="49.747%" y1="96.203%" y2="1.829%"><stop offset="0" stop-color="#ee8786"/><stop offset=".16167" stop-color="#e77e82"/><stop offset=".42533" stop-color="#d36677"/><stop offset=".75614" stop-color="#b33e66"/><stop offset=".99875" stop-color="#981d57"/></linearGradient><linearGradient id="l" x1="50.453%" x2="49.416%" y1="92.471%" y2="-4.792%"><stop offset=".01022" stop-color="#f3b6c3" stop-opacity="0"/><stop offset="1" stop-color="#e64d7c" stop-opacity=".3"/></linearGradient><linearGradient id="m"><stop offset="0" stop-color="#f3b6c1"/><stop offset=".99696" stop-color="#fff"/></linearGradient><linearGradient id="n" x1="135.519%" x2="49.344%" xlink:href="#m" y1="97.604%" y2="-.752%"/><linearGradient id="o" x1="105.805%" x2="49.569%" xlink:href="#m" y1="97.597%" y2="-.759%"/><linearGradient id="p" x1="49.222%" x2="50.849%" y1="90.52%" y2="5.777%"><stop offset="0" stop-color="#f9cdd9"/><stop offset=".98224" stop-color="#fff"/></linearGradient><linearGradient id="q" x1="101.647%" x2="-2.67%" y1="358.299%" y2="-264.476%"><stop offset="0" stop-color="#f492b9"/><stop offset="1" stop-color="#fff"/></linearGradient><linearGradient id="r" x1="50.723%" x2="49.23%" y1="96.887%" y2=".036%"><stop offset="0" stop-color="#c53884"/><stop offset=".99696" stop-color="#ed8ab9"/></linearGradient><linearGradient id="s" x1="42.767%" x2="65.827%" y1="63.161%" y2="21.202%"><stop offset=".01145" stop-color="#f6ced0"/><stop offset="1" stop-color="#fff"/></linearGradient><linearGradient id="t" x1="67.969%" x2="17.36%" y1="59.342%" y2="33.03%"><stop offset="0" stop-color="#eb496a" stop-opacity="0"/><stop offset="1" stop-color="#da4d8d"/></linearGradient><linearGradient id="u" x1="78.801%" x2="29.364%" y1="88.987%" y2="-2.284%"><stop offset=".02688" stop-color="#ee253d"/><stop offset="1" stop-color="#d84a98" stop-opacity="0"/></linearGradient><linearGradient id="v" x1="50.184%" x2="49.747%" y1="106.789%" y2="-28.374%"><stop offset=".08032" stop-color="#f2b1ad"/><stop offset=".79391" stop-color="#ee88a6"/></linearGradient><linearGradient id="w" x1="48.43%" x2="52.151%" y1="84.813%" y2="2.309%"><stop offset=".02125" stop-color="#fff" stop-opacity="0"/><stop offset=".1941" stop-color="#fad9e3" stop-opacity=".315"/><stop offset=".36929" stop-color="#f5b7c9" stop-opacity=".606"/><stop offset=".51606" stop-color="#f19db6" stop-opacity=".819"/><stop offset=".6265" stop-color="#ef8eaa" stop-opacity=".951"/><stop offset=".68798" stop-color="#ee88a6"/></linearGradient><linearGradient id="x" x1="51.086%" x2="48.956%" y1="94.362%" y2="7.345%"><stop offset=".02125" stop-color="#fff" stop-opacity="0"/><stop offset=".7739" stop-color="#f1bbc6"/></linearGradient><linearGradient id="y" x1="48.843%" x2="52.236%" y1="93.745%" y2="4.233%"><stop offset=".07946" stop-color="#fff7f1"/><stop offset=".45203" stop-color="#f08eaa"/></linearGradient><linearGradient id="z" x1="50%" x2="50%" y1="100%" y2="0%"><stop offset=".02125" stop-color="#fff"/><stop offset=".41774" stop-color="#fff7f1"/><stop offset=".75164" stop-color="#fbe0e7"/></linearGradient><linearGradient id="A" x1="49.095%" x2="50.908%" y1="93.651%" y2="6.204%"><stop offset=".07946" stop-color="#fff7f1" stop-opacity="0"/><stop offset=".58268" stop-color="#f8d8b3"/></linearGradient><linearGradient id="B" x1="16.201%" x2="84.188%" y1="105.867%" y2="-5.052%"><stop offset="0" stop-color="#fff"/><stop offset=".08497" stop-color="#fef6e9"/><stop offset=".22914" stop-color="#fde8ca"/><stop offset=".36927" stop-color="#fddfb3"/><stop offset=".50227" stop-color="#fcd9a6"/><stop offset=".62053" stop-color="#fcd7a1"/></linearGradient><linearGradient id="C" x1="48.98%" x2="51.171%" y1="94.157%" y2="4.151%"><stop offset=".07946" stop-color="#fff7f1"/><stop offset=".46128" stop-color="#fdd7a2"/></linearGradient><linearGradient id="D" x1="50.002%" x2="50.002%" y1="93.948%" y2="4.23%"><stop offset="0" stop-color="#fff7f1"/><stop offset="1" stop-color="#fff" stop-opacity=".5"/></linearGradient><linearGradient id="E" x1="49.91%" x2="50.168%" y1="96.963%" y2="-12.087%"><stop offset="0" stop-color="#fff7f1"/><stop offset=".68629" stop-color="#d98a64"/><stop offset="1" stop-color="#facc98"/></linearGradient><linearGradient id="F"><stop offset="0" stop-color="#e5077f"/><stop offset=".33709" stop-color="#e50980"/><stop offset=".47552" stop-color="#e61084"/><stop offset=".57756" stop-color="#e71c8a"/><stop offset=".6617" stop-color="#e92e93"/><stop offset=".73477" stop-color="#eb459e"/><stop offset=".80022" stop-color="#ee61ac"/><stop offset=".86002" stop-color="#f283bd"/><stop offset=".91538" stop-color="#f6aad1"/><stop offset=".96509" stop-color="#fad4e6"/><stop offset="1" stop-color="#fef7f8"/><stop offset="1" stop-color="#fffdfe"/></linearGradient><linearGradient id="G" x1="49.946%" x2="50.071%" xlink:href="#F" y1="96.914%" y2="-11.997%"/><linearGradient id="H"><stop offset="0" stop-color="#efb0bd"/><stop offset=".31618" stop-color="#f0b3bf"/><stop offset=".52739" stop-color="#f1bcc7"/><stop offset=".7079" stop-color="#f5cbd3"/><stop offset=".87017" stop-color="#f9e0e5"/><stop offset="1" stop-color="#fef7f8"/><stop offset="1" stop-color="#fffdfe"/></linearGradient><linearGradient id="I" x1="-1.052%" x2="101.052%" xlink:href="#H" y1="50%" y2="50%"/><linearGradient id="J" x1="0%" y1="50%" y2="50%"><stop offset="0" stop-color="#d98a64"/><stop offset=".38574" stop-color="#e4a176"/><stop offset="1" stop-color="#facc98"/></linearGradient><linearGradient id="K" x1="0%" xlink:href="#F" y1="50%" y2="50%"/><linearGradient id="L"><stop offset="0" stop-color="#efb0bd"/><stop offset=".44453" stop-color="#efb2bf"/><stop offset=".62704" stop-color="#f1b9c5"/><stop offset=".76146" stop-color="#f4c5cf"/><stop offset=".8723" stop-color="#f7d7dd"/><stop offset=".96757" stop-color="#fcedf0"/><stop offset="1" stop-color="#fef7f8"/><stop offset="1" stop-color="#fffdfe"/></linearGradient><linearGradient id="M" x1="-.705%" x2="100.705%" xlink:href="#L" y1="50%" y2="50%"/><linearGradient id="N" x1="-.835%" x2="100.835%" xlink:href="#L" y1="50%" y2="50%"/><linearGradient id="O" x1="50.001%" x2="50.001%" y1="0%" y2="100%"><stop offset="0" stop-color="#8b4975"/><stop offset=".17586" stop-color="#8e4e79" stop-opacity=".972"/><stop offset=".34494" stop-color="#985c84" stop-opacity=".889"/><stop offset=".51138" stop-color="#a87596" stop-opacity=".75"/><stop offset=".67613" stop-color="#be97af" stop-opacity=".554"/><stop offset=".83807" stop-color="#dbc2d0" stop-opacity=".304"/><stop offset=".99885" stop-color="#fef7f8" stop-opacity="0"/></linearGradient><linearGradient id="P" x1="50.003%" x2="50.003%" y1="100%" y2="0%"><stop offset=".00133" stop-color="#fcd7a1" stop-opacity="0"/><stop offset=".18317" stop-color="#fcd59e" stop-opacity=".162"/><stop offset=".59156" stop-color="#fbd198" stop-opacity=".57"/><stop offset="1" stop-color="#fbcd91"/></linearGradient><linearGradient id="Q" x1="50%" x2="50%" y1="100%" y2="0%"><stop offset="0" stop-color="#fcd7a1" stop-opacity="0"/><stop offset=".22016" stop-color="#fcd7a1" stop-opacity=".242"/><stop offset=".60573" stop-color="#fcd7a1" stop-opacity=".646"/><stop offset=".874" stop-color="#fcd7a1" stop-opacity=".901"/><stop offset="1" stop-color="#fcd7a1"/></linearGradient><linearGradient id="R" x1="-1.423%" x2="101.423%" xlink:href="#H" y1="50%" y2="50%"/><linearGradient id="S"><stop offset="0" stop-color="#facc91"/><stop offset=".22064" stop-color="#facd94"/><stop offset=".41288" stop-color="#fbd29f"/><stop offset=".59452" stop-color="#fbd9b1"/><stop offset=".76963" stop-color="#fce4ca"/><stop offset=".93858" stop-color="#fdf1ea"/><stop offset="1" stop-color="#fef7f8"/><stop offset="1" stop-color="#fffdfe"/></linearGradient><linearGradient id="T" x1="33.89%" x2="99.346%" xlink:href="#S" y1="47.005%" y2="98.635%"/><linearGradient id="U" x1="47.524%" x2="72.642%" xlink:href="#S" y1="43.905%" y2="105.772%"/><linearGradient id="V" x1="96.59%" x2="-6.281%" y1="28.212%" y2="76.313%"><stop offset="0" stop-color="#facc91"/><stop offset=".16251" stop-color="#facf98"/><stop offset=".39745" stop-color="#fbd7ab"/><stop offset=".67639" stop-color="#fce4cb"/><stop offset=".98691" stop-color="#fef6f6"/><stop offset="1" stop-color="#fef7f8"/><stop offset="1" stop-color="#fffdfe"/></linearGradient><linearGradient id="W" x1="50.001%" x2="50.001%" y1="0%" y2="100%"><stop offset="0" stop-color="#ed9cac"/><stop offset=".14882" stop-color="#ed9dad" stop-opacity=".987"/><stop offset=".2677" stop-color="#eea1b1" stop-opacity=".944"/><stop offset=".37622" stop-color="#efa8b6" stop-opacity=".873"/><stop offset=".47861" stop-color="#f1b2bf" stop-opacity=".773"/><stop offset=".57674" stop-color="#f3bfc9" stop-opacity=".644"/><stop offset=".67166" stop-color="#f6ced6" stop-opacity=".485"/><stop offset=".76396" stop-color="#fae0e6" stop-opacity=".296"/><stop offset=".85196" stop-color="#fdf5f7" stop-opacity=".084"/><stop offset=".88326" stop-color="#fffdfe" stop-opacity="0"/><stop offset="1" stop-color="#fef7f8" stop-opacity="0"/></linearGradient><linearGradient id="X" x1="50%" x2="50%" y1="0%" y2="100%"><stop offset="0" stop-color="#d2899a"/><stop offset=".28289" stop-color="#d28a9b" stop-opacity=".989"/><stop offset=".42169" stop-color="#d48e9e" stop-opacity=".953"/><stop offset=".52913" stop-color="#d795a4" stop-opacity=".891"/><stop offset=".62054" stop-color="#db9fad" stop-opacity=".802"/><stop offset=".70166" stop-color="#e0abb7" stop-opacity=".687"/><stop offset=".77559" stop-color="#e6bbc5" stop-opacity=".545"/><stop offset=".84397" stop-color="#edced5" stop-opacity=".376"/><stop offset=".90626" stop-color="#f6e3e7" stop-opacity=".185"/><stop offset=".95744" stop-color="#fef7f8" stop-opacity="0"/></linearGradient><linearGradient id="Y" x1="51.934%" x2="49.275%" xlink:href="#S" y1="-2.348%" y2="86.731%"/><linearGradient id="Z" x1="50%" x2="50%" y1="0%" y2="100%"><stop offset="0" stop-color="#8b4975"/><stop offset=".10945" stop-color="#92547d" stop-opacity=".938"/><stop offset=".28518" stop-color="#a67395" stop-opacity=".769"/><stop offset=".5052" stop-color="#c6a4ba" stop-opacity=".493"/><stop offset=".75867" stop-color="#f2e8ee" stop-opacity=".114"/><stop offset=".8287" stop-color="#fffdfe" stop-opacity="0"/><stop offset="1" stop-color="#fef7f8" stop-opacity="0"/></linearGradient><linearGradient id="aa" x1="50.006%" x2="49.879%" y1="108.329%" y2="-81.487%"><stop offset=".07946" stop-color="#fff7f1"/><stop offset=".51346" stop-color="#f49f60"/></linearGradient><linearGradient id="ab"><stop offset="0" stop-color="#fdd8a4"/><stop offset=".06045" stop-color="#fbca93"/><stop offset=".16272" stop-color="#f8b77c"/><stop offset=".27388" stop-color="#f6a96c"/><stop offset=".3993" stop-color="#f4a163"/><stop offset=".56912" stop-color="#f49f60"/></linearGradient><linearGradient id="ac" x1="49.999%" x2="49.999%" xlink:href="#ab" y1="100.017%" y2="0%"/><linearGradient id="ad" x1="50%" x2="50%" y1="100%" y2="0%"><stop offset=".01923" stop-color="#f0bcc7"/><stop offset=".09116" stop-color="#f0b4c2"/><stop offset=".34914" stop-color="#ef9cb3"/><stop offset=".58745" stop-color="#ee8da9"/><stop offset=".78568" stop-color="#ee88a6"/></linearGradient><linearGradient id="ae" x1="71.623%" x2="27.414%" y1="97.151%" y2=".749%"><stop offset=".10496" stop-color="#fff" stop-opacity="0"/><stop offset=".15906" stop-color="#fffaf3" stop-opacity=".126"/><stop offset=".26751" stop-color="#fef1de" stop-opacity=".354"/><stop offset=".37611" stop-color="#fde9cb" stop-opacity=".552"/><stop offset=".48238" stop-color="#fde2bc" stop-opacity=".713"/><stop offset=".58584" stop-color="#fcddb0" stop-opacity=".838"/><stop offset=".68574" stop-color="#fcdaa8" stop-opacity=".928"/><stop offset=".78048" stop-color="#fcd8a3" stop-opacity=".982"/><stop offset=".86466" stop-color="#fcd7a1"/></linearGradient><linearGradient id="af" x1="34.735%" x2="65.654%" y1="182.338%" y2="-78.127%"><stop offset=".02125" stop-color="#fff"/><stop offset=".09426" stop-color="#fff7f1"/><stop offset=".62053" stop-color="#fcd7a1"/></linearGradient><linearGradient id="ag" x1="-10.265%" x2="110.265%" y1="90.28%" y2="9.72%"><stop offset=".10454" stop-color="#fcd7a1" stop-opacity="0"/><stop offset=".16658" stop-color="#fcd8a9" stop-opacity=".122"/><stop offset=".29464" stop-color="#fcdab8" stop-opacity=".352"/><stop offset=".4229" stop-color="#fbdcc5" stop-opacity=".55"/><stop offset=".54843" stop-color="#fbddd0" stop-opacity=".712"/><stop offset=".67064" stop-color="#fbdfd8" stop-opacity=".838"/><stop offset=".78865" stop-color="#fbdfde" stop-opacity=".927"/><stop offset=".90056" stop-color="#fbe0e2" stop-opacity=".982"/><stop offset="1" stop-color="#fbe0e3"/></linearGradient><linearGradient id="ah" x1="49.455%" x2="51.089%" xlink:href="#ab" y1="96.676%" y2="-16.854%"/><linearGradient id="ai" x1="51.048%" x2="48.505%" y1="-3.655%" y2="106.157%"><stop offset="0" stop-color="#f088a7"/><stop offset=".15145" stop-color="#f08aa8" stop-opacity=".986"/><stop offset=".28348" stop-color="#f18fac" stop-opacity=".941"/><stop offset=".40826" stop-color="#f297b2" stop-opacity=".866"/><stop offset=".52866" stop-color="#f3a2ba" stop-opacity=".761"/><stop offset=".64588" stop-color="#f5b2c5" stop-opacity=".626"/><stop offset=".76071" stop-color="#f8c4d3" stop-opacity=".459"/><stop offset=".87367" stop-color="#fadae3" stop-opacity=".262"/><stop offset=".98246" stop-color="#fdf3f5" stop-opacity=".039"/><stop offset="1" stop-color="#fef7f8" stop-opacity="0"/><stop offset="1" stop-color="#fffdfe" stop-opacity="0"/></linearGradient><linearGradient id="aj" x1="50%" x2="50%" y1="100%" y2="0%"><stop offset=".02125" stop-color="#fff"/><stop offset=".7739" stop-color="#ee88a6"/></linearGradient><linearGradient id="ak" x1="75.942%" x2="39.908%" y1="8.701%" y2="109.44%"><stop offset="0" stop-color="#854271"/><stop offset=".11642" stop-color="#8a4a77" stop-opacity=".957"/><stop offset=".26844" stop-color="#996188" stop-opacity=".834"/><stop offset=".44017" stop-color="#b287a5" stop-opacity=".631"/><stop offset=".62637" stop-color="#d5bccd" stop-opacity=".348"/><stop offset=".81659" stop-color="#fffdfe" stop-opacity="0"/><stop offset="1" stop-color="#fef7f8" stop-opacity="0"/></linearGradient><linearGradient id="al" x1="48.465%" x2="53.601%" y1="99.16%" y2=".563%"><stop offset=".15934" stop-color="#fff7f1"/><stop offset="1" stop-color="#f08eaa"/></linearGradient><linearGradient id="am" x1="52.459%" x2="-21.281%" y1="55.91%" y2="165.616%"><stop offset="0" stop-color="#854271"/><stop offset=".07969" stop-color="#8a4a77" stop-opacity=".957"/><stop offset=".18375" stop-color="#996188" stop-opacity=".834"/><stop offset=".30129" stop-color="#b287a5" stop-opacity=".631"/><stop offset=".42875" stop-color="#d5bccd" stop-opacity=".348"/><stop offset=".55895" stop-color="#fffdfe" stop-opacity="0"/><stop offset="1" stop-color="#fef7f8" stop-opacity="0"/></linearGradient><linearGradient id="an" x1="53.679%" x2="48.589%" y1="-2.402%" y2="86.742%"><stop offset="0" stop-color="#f5a05f"/><stop offset=".18505" stop-color="#f5a262"/><stop offset=".34627" stop-color="#f6a86d"/><stop offset=".49864" stop-color="#f7b27f"/><stop offset=".64556" stop-color="#f8c198"/><stop offset=".78864" stop-color="#fad3b9"/><stop offset=".92691" stop-color="#fde9e0"/><stop offset="1" stop-color="#fef7f8"/><stop offset="1" stop-color="#fffdfe"/></linearGradient><linearGradient id="ao" x1="49.995%" x2="50.025%" y1="122.779%" y2="-15.701%"><stop offset="0" stop-color="#fff"/><stop offset=".87713" stop-color="#ed9cac"/></linearGradient><linearGradient id="ap"><stop offset=".10582" stop-color="#fff" stop-opacity="0"/><stop offset=".14719" stop-color="#fef5f7" stop-opacity=".097"/><stop offset=".25747" stop-color="#fbdce5" stop-opacity=".333"/><stop offset=".36788" stop-color="#f9c7d5" stop-opacity=".537"/><stop offset=".47595" stop-color="#f7b6c8" stop-opacity=".703"/><stop offset=".58118" stop-color="#f6a8be" stop-opacity=".833"/><stop offset=".68275" stop-color="#f59fb7" stop-opacity=".925"/><stop offset=".77907" stop-color="#f499b2" stop-opacity=".981"/><stop offset=".86466" stop-color="#f497b1"/></linearGradient><linearGradient id="aq" x1="312.396%" x2="-224.083%" xlink:href="#ap" y1="93.724%" y2="4.329%"/><linearGradient id="ar" x1="312.436%" x2="-224.125%" xlink:href="#ap" y1="93.73%" y2="4.322%"/><linearGradient id="as" x1="312.414%" x2="-224.1%" xlink:href="#ap" y1="93.726%" y2="4.326%"/><linearGradient id="at" x1="50%" x2="50%" y1="0%" y2="100%"><stop offset="0" stop-color="#fcd7a1"/><stop offset=".19725" stop-color="#f9c289"/><stop offset=".4351" stop-color="#f6af72"/><stop offset=".66174" stop-color="#f5a365"/><stop offset=".86331" stop-color="#f49f60"/></linearGradient><linearGradient id="au" x1="50%" x2="50%" y1="100%" y2="0%"><stop offset="0" stop-color="#fcd7a1" stop-opacity="0"/><stop offset=".02927" stop-color="#fcd8a7" stop-opacity=".095"/><stop offset=".09389" stop-color="#fcdab4" stop-opacity=".283"/><stop offset=".16418" stop-color="#fcdbbf" stop-opacity=".454"/><stop offset=".23856" stop-color="#fbdcc9" stop-opacity=".602"/><stop offset=".3181" stop-color="#fbded1" stop-opacity=".726"/><stop offset=".40446" stop-color="#fbded8" stop-opacity=".826"/><stop offset=".50024" stop-color="#fbdfdd" stop-opacity=".904"/><stop offset=".61057" stop-color="#fbe0e0" stop-opacity=".959"/><stop offset=".7484" stop-color="#fbe0e2" stop-opacity=".991"/><stop offset="1" stop-color="#fbe0e3"/></linearGradient><linearGradient id="av" x1="50%" x2="50%" xlink:href="#ap" y1="100%" y2="0%"/><linearGradient id="aw" x1="49.877%" x2="50.104%" y1="86.769%" y2="18.011%"><stop offset="0" stop-color="#fcd7a1" stop-opacity="0"/><stop offset=".36627" stop-color="#f9c187" stop-opacity=".239"/><stop offset=".79622" stop-color="#f6a96a" stop-opacity=".498"/><stop offset="1" stop-color="#f5a05f" stop-opacity=".6"/></linearGradient><g fill="none" fill-rule="evenodd"><g fill-rule="nonzero" transform="translate(0 123)"><path d="m269.147 81.303-94.738 141.496-94.738-141.496 94.738-80.613" fill="url(#a)"/><path d="m86.296 81.303h182.851l-94.738 141.496z" fill="url(#b)"/><path d="m174.409 222.799-94.738-141.496h-78.911z" fill="url(#c)"/><path d="m348.05831 81.30271h-78.91162v-80.61226c48.29937 35.71941 78.91162 80.61226 78.91162 80.61226z" fill="url(#d)"/><path d="m269.147 81.303-94.738-80.613h94.738z" fill="url(#e)"/><path d="m265.74537 81.30271s-97.47621 40.81633-179.449 0z" fill="#bc1f50"/><path d="m174.40911 222.79933s16.24364-50.29559 12.93489-85.37416c-2.19109-23.22935-17.041-34.37185-36.1697-39.28746-48.01481-12.33865-64.87794-16.835-64.87794-16.835z" fill="url(#f)"/><path d="m348.058 81.303h-78.911l-94.738 141.496 96.799-141.496z" fill="url(#g)"/><path d="m.75991 81.30271h78.91158v-80.61226c-27.7471441 21.0209284-52.4810151 45.7471009-73.51058 73.4877z" fill="url(#h)"/><path d="m79.671 81.303 94.738-80.613h-94.738z" fill="url(#i)"/><path d="m174.40911 222.79933-173.6492-141.49662s35.05345-48.59179 78.91158-80.61226h189.07388s43.25851 29.12931 79.31294 80.61226z" fill="url(#j)"/><path d="m.76 81.303h78.911l94.738 141.496z" fill="url(#k)"/><path d="m102.4512 115.32565s31.60109 63.70243-60.23565-.24315l132.19356 107.71683z" fill="url(#l)"/><path d="m269.147 81.303-1.402-80.613h1.402z" fill="url(#n)"/><path d="m79.671 53.296-.926-52.606h1.402z" fill="url(#o)"/><path d="m174.409.69-34.038 28.964 32.667-28.964z" fill="url(#p)"/><path d="m79.671 80.296-79.386 1.007h79.386z" fill="url(#q)" opacity=".5"/><path d="m.28469 81.30271s20.5175-.173 36.03891-10.32648c18.023-11.78984 31.50876-34.10593 41.88534-68.52885 0 0-37.60262 25.91648-77.92425 78.85533z" fill="url(#r)" opacity=".23"/><path d="m174.40911.69045 48.35739 41.14732s-32.55081-31.67118-48.35739-41.14732z" fill="url(#s)" opacity=".37"/><path d="m79.671 81.303 94.738-80.613 94.738 80.613h-182.851l88.113 141.496z" fill="url(#t)"/><path d="m174.02087 222.79933-173.64918-141.49662s35.05345-48.59179 78.91157-80.61226h189.07387s43.25851 29.12931 79.31293 80.61226z" fill="url(#u)"/><path d="m174.409 222.799 94.738-141.496h78.911z" fill="url(#v)"/></g><g transform="translate(66)"><path d="m114.644 66.228h8.295v56.062h-8.295z" fill="url(#w)" fill-rule="nonzero"/><path d="m131.39916 66.22791h-22.07461c-.430096.0000022-.802111-.2995992-.89379-.71981l-2.53749-11.63018c-.084849-.3888977.010989-.7952996.260655-1.1053117.249667-.310012.626299-.4902779 1.024345-.4902783h29.84767c.42734-.0000022.825815.2156809 1.059492.573473.233676.3577921.270985.8093552.099198 1.200647l-4.76394 10.85118c-.352189.8022143-1.145411 1.3202748-2.02153 1.32028z" fill="#fcd7a1" fill-rule="nonzero"/><path d="m114.601 66.313h3.061v48.087h-3.061z" fill="url(#x)" fill-rule="nonzero"/><path d="m114.644 68.864 8.295 6.803v-9.439h-8.295z" fill="#bd5e8b" fill-rule="nonzero"/><path d="m110.81726 52.28233s-.80388-6.06268 1.74319-6.0327c4.42228.05207 10.37881.0378 10.37881.0378s2.22749-.12283 2.44007 1.40306c.26053 1.87.44643 4.59184.44643 4.59184z" fill="#f49f60" fill-rule="nonzero"/><path d="m115.17525 46.24963v-4.52619c.000001-.3517477-.097898-.6965541-.28274-.99582l-.25814-.418c-.217774-.3457031-.25855-.774246-.109883-1.1548168.148667-.3805707.469132-.6679972.863573-.7745432.514461-.1282176 1.042712-.1928237 1.57291-.19237h3.91679c.869679.0000005 1.586482.6821669 1.62952 1.55078l.00216.0436c.01156.266.03307.64956.06054 1.09919.124 2.02948.36928 5.40592.36928 5.40592z" fill="#854271" fill-rule="nonzero"/><path d="m118.308 6.109h2.16v32.079h-2.16z" fill="#ed9cac" fill-rule="nonzero"/><path d="m136.64856 57.55529h-26.29981c-.30811.0000139-.573997-.2160604-.637-.51766l-.15231-.72917c-.040337-.1931019.008479-.3941001.132895-.5471891.124415-.153089.311185-.2419718.508455-.2419709h27.34158zm-1.7561 4h-23.33277c-.405101.0000028-.754679-.2840979-.83751-.68064l-.12016-.57527c-.03987-.1908847.008389-.3895735.131379-.5409014.122989-.1513279.307617-.2391851.502621-.2391786h24.55034z" fill="#854271" fill-rule="nonzero"/><path d="m131.4852 66.19527-22.19151.03159c-.411958.0005874-.768562-.2861809-.85638-.68867l-.38679-1.77279h25.87161l-.50361 1.15967c-.334465.7702232-1.093612 1.2689864-1.93332 1.2702z" fill="#f49f60" fill-rule="nonzero" opacity=".71"/><path d="m114.11404 52.04052.06206-3.91718c.09915-.72426-1.01474-1.21741-1.57313-.82313-1.1267.79556-.91649 2.64437-.91442 4.99646.00043.48743.32463.43.77954.43h.90247c.384583-.0105132.702206-.303644.74348-.68615z" fill="#f8d1a5" fill-rule="nonzero" opacity=".43"/><path d="m118.308 8.046 2.161 1.762v-3.699h-2.161z" fill="#bd5e8b" fill-rule="nonzero" opacity=".61"/><path d="m147.461 79.068-2.333 5.325-4.506 5.644.379 27.684 13.46 2.722v-27.302l-4.5-8.748z" fill="url(#y)" fill-rule="nonzero"/><path d="m122.93926 3.49108c0 2.60434-1.81217 3.42644-3.80993 3.42644s-3.42461-.8221-3.42461-3.42644c0-2.60434 1.61951-3.39754 3.61727-3.39754s3.61727.79321 3.61727 3.39754z" fill="#854271" fill-rule="nonzero"/><rect fill="url(#z)" fill-rule="nonzero" height="40.626" rx="2.745" width="13.457" x="79.397" y="83.065"/><path d="m124.71862 91.51999h1.32778c.430429 0 .77936.3489314.77936.77936v1.88051c0 .4304286.348931.77936.77936.77936h2.2253c.430429 0 .77936.3489314.77936.77936v19.36988c0 .430429-.348931.77936-.77936.77936h-5.1118c-.430429 0-.77936-.348931-.77936-.77936v-22.80911c0-.4304286.348931-.77936.77936-.77936z" fill="url(#A)" fill-rule="nonzero"/><path d="m147.46097 79.06804.39406 3.91357c.109559 1.088185.306189 2.1658344.588 3.22259l.93716 3.51436h5.08078l-4.5-5.32526z" fill="#bd5e8b" fill-rule="nonzero"/><path d="m153.92087 93.32143h-12.9198c-1.27105 0-2.30143-.03039-2.30143-1.30144v-.7394c0-.8626688.699331-1.562 1.562-1.562h14.3986c.862669 0 1.562.6993312 1.562 1.562v.7394c.00006 1.27105-1.03032 1.30144-2.30137 1.30144zm2.30143 3.69856v-.7394c0-.8626688-.699331-1.562-1.562-1.562h-14.39861c-.862669 0-1.562.6993312-1.562 1.562v.7394c0 1.27105 1.03038 1.30144 2.30143 1.30144h12.9198c1.271 0 2.30138-.03039 2.30138-1.30144zm0 5v-.7394c0-.862669-.699331-1.562-1.562-1.562h-14.39861c-.862669 0-1.562.699331-1.562 1.562v.7394c0 1.27105 1.03038 1.30144 2.30143 1.30144h12.9198c1.271 0 2.30138-.03039 2.30138-1.30144zm0 5v-.7394c0-.862669-.699331-1.562-1.562-1.562h-14.39861c-.862669 0-1.562.699331-1.562 1.562v.7394c0 1.27105 1.03038 1.30144 2.30143 1.30144h12.9198c1.271 0 2.30138-.03039 2.30138-1.30144z" fill="url(#B)" fill-rule="nonzero"/><path d="m90.62169 87.10376-.38266 36.58669h21.43274v-43.30334c-.000005-1.2380316-.809809-2.3303717-1.99439-2.69022l-6.68324-2.03021h-14.14307c-1.2059027 0-2.18348.9775773-2.18348 2.18348v5.104c-.0000017.9007141.4440751 1.7435173 1.187 2.25278z" fill="url(#C)" fill-rule="nonzero"/><path d="m90.041 86.264h1v37.148h-1z" fill="url(#D)" fill-rule="nonzero" transform="matrix(-1 0 0 -1 181.08 209.676)"/><path d="m86.96554 84.19204h16.02859v-8.52536l6.47937 1.93653c1.304464.3898773 2.198256 1.5898689 2.19826 2.95135v43.13589h-7.50757v-32.63259l-13.5425-3.9541c-1.349342-.794155-2.5801406-1.7743503-3.65615-2.91172z" fill="url(#E)" fill-rule="nonzero"/><path d="m72.80705 92.25512 32.58834 30.72189" fill="url(#G)" fill-rule="nonzero" stroke="url(#I)"/><path d="m151.79812 108.32143h2.62479c.477772 0 .935975-.189794 1.27381-.52763.337836-.337835.52763-.796038.52763-1.27381 0-.9949-.80653-.80143-1.80144-.80143h-2.62479c-.99491 0-1.80144 1.608-1.80144 2.60287z" fill="url(#J)" fill-rule="nonzero" opacity=".38"/><path d="m121.45522 122.28987-48.64817-45.9123" fill="url(#K)" fill-rule="nonzero" stroke="url(#M)"/><path d="m72.80705 84.25512 41.07985 38.72189" fill="url(#K)" fill-rule="nonzero" stroke="url(#N)"/><path d="m88.453 77.59h12.755v4.592h-12.755z" fill="#ed9cac" fill-rule="nonzero"/><path d="m89.346 82.181v-2.623h11.862v-1.968h-12.755v4.591z" fill="#c1648d" fill-rule="nonzero"/><path d="m24.572 80.621 4.167-3.012h4.422v41.84h-2.423l-.733-38.828z" fill="url(#O)" fill-rule="nonzero"/><path d="m23.424 123.517-6.037-42.896-1.446-8.767h.713l1.816 8.767h11.535l.902 42.896z" fill="url(#P)" fill-rule="nonzero"/><path d="m33.18119 89.28108v29.04756c0 1.134245.9194846 2.053734 2.05373 2.05374h3.12043c.5446848 0 1.0670606-.216376 1.4522099-.601527.3851494-.385151.6015228-.907528.6015201-1.452213v-26.99378c.0000027-.5446848-.2163707-1.0670616-.6015201-1.4522129-.3851493-.3851512-.9075251-.6015271-1.4522099-.6015271z" fill="url(#Q)" fill-rule="nonzero"/><path d="m72.80705 100.25512 24.10231 22.72189" fill="url(#K)" fill-rule="nonzero" stroke="url(#R)"/><path d="m73.52984 68.08618v35.23525l10.20408 20.369h-7.14286l-7.52551-19.98657v-26.52319c-.0000077-1.4377477.3764797-2.8504338 1.092-4.09749l2.93413-5.11377c.0528997-.0922328.1612099-.1373637.2639503-.1099833s.1742261.120427.1742097.2267533z" fill="url(#T)" fill-rule="nonzero"/><path d="m73.53 103.321 16.709 20.369h-6.505z" fill="url(#U)" fill-rule="nonzero"/><path d="m69.066 83.405-4.507 4.166v2.785l4.507-3.475z" fill="url(#V)" fill-rule="nonzero"/><path d="m73.52984 103.32143-1.318-1.8044v-27.5223c.0000002-.8100533.0942199-1.6173576.28076-2.40564l1.03727-3.50291z" fill="#f3ad6e" fill-rule="nonzero"/><path d="m45.76623 58.0148v27.06972c-.0072251.5835159.326832 1.1175461.8547 1.36634.7390356.3626382 1.3377921.9589589 1.70344 1.69651.108991.2129201.1648921.4490334.16294.68822v33.85486h8.84353v-68.17115h-8.06915c-1.9304957.0000221-3.49546 1.5650043-3.49546 3.4955z" fill="url(#W)" fill-rule="nonzero"/><path d="m64.55737 86.26363h-7.22789v-31.74432h6.405c.4544475 0 .82285.3684025.82285.82285z" fill="#f1bbc6" fill-rule="nonzero"/><path d="m55.12 54.519h2.211v68.171h-2.211z" fill="url(#X)" fill-rule="nonzero"/><path d="m48.52983 54.63629c-1.5263 0-2.89115 2.06781-2.7636 3.7636v26.69981c-.0000003.439727.1724197.8619233.48024 1.17594l.12233.06542c.6238231.3335659 1.1588923.8113917 1.56062 1.39366l.60041.87026z" fill="#f0bcc7" fill-rule="nonzero"/><rect fill="#854271" fill-rule="nonzero" height="1.956" rx=".978" width="6.207" x="56.331" y="57.109"/><path d="m33.90802 116.53786c-.11112 2.28475-2.39633 4.03014-5.10416 3.89844s-4.81288-2.09062-4.70175-4.37537 2.13346-6.75957 4.84129-6.62787 5.07574 4.82002 4.96462 7.1048z" fill="url(#Y)" fill-rule="nonzero"/><path d="m57.331 86.264h6.207v36.427h-6.207z" fill="url(#Z)" fill-rule="nonzero"/><path d="m55.625 51.689h1v2.819h-1z" fill="#fcd7a1" fill-rule="nonzero"/><path d="m51.61402 52.32569v-7.64544c.0000053-.1350318.091132-.2530514.2217699-.2872176.1306378-.0341663.2678766.0241281.3339901.1418676l3.47325 6.18594c.0689416.1227868.1987926.1987978.33961.1987978s.2706684-.076011.33961-.1987978l3.49553-6.22561c.0634754-.1129984.1952012-.1689389.3205902-.1361461.125389.0327927.2128623.1460599.2128898.2756661v7.69094" stroke="#f49f5d" stroke-width="2"/><g fill-rule="nonzero"><path d="m151.79812 93.32143h2.62479c.477772 0 .935975-.189794 1.27381-.5276296.337836-.3378355.52763-.7960388.52763-1.2738104 0-.9949-.80653-.80143-1.80144-.80143h-2.62479c-.99491 0-1.80144 1.608-1.80144 2.60287z" fill="url(#J)"/><path d="m151.79812 98.32143h2.62479c.477772 0 .935975-.189794 1.27381-.5276296.337836-.3378355.52763-.7960388.52763-1.2738104 0-.9949-.80653-.80143-1.80144-.80143h-2.62479c-.99491 0-1.80144 1.608-1.80144 2.60287z" fill="url(#J)" opacity=".77"/><path d="m151.79812 103.32143h2.62479c.477772 0 .935975-.189794 1.27381-.52763.337836-.337835.52763-.796038.52763-1.27381 0-.9949-.80653-.80143-1.80144-.80143h-2.62479c-.99491 0-1.80144 1.608-1.80144 2.60287z" fill="url(#J)" opacity=".38"/><rect fill="#854271" height="1.956" rx=".978" width="6.207" x="56.331" y="63.109"/><rect fill="#854271" height="1.956" rx=".978" transform="matrix(-1 0 0 -1 118.87 128.174)" width="6.207" x="56.331" y="63.109"/><rect fill="#854271" height="1.956" rx=".978" transform="matrix(-1 0 0 -1 118.87 140.174)" width="6.207" x="56.331" y="69.109"/><rect fill="#854271" height="1.956" rx=".978" transform="matrix(-1 0 0 -1 118.87 152.174)" width="6.207" x="56.331" y="75.109"/><path d="m42.964 115.69h-1.624v-3.746-1.463h1.624v2.452z" fill="#e07cb2"/><path d="m52.424 112.481h1.456v5.209h-1.456z" fill="#e07cb2"/><path d="m14.14669 123.69045s1.68752-5.06709 11.72153-7.80267 31.37756.46929 47.66158 7.80267z" fill="url(#aa)"/><rect fill="#854271" height="1.956" rx=".978" transform="matrix(-1 0 0 -1 118.87 164.174)" width="6.207" x="56.331" y="81.109"/><path d="m41.34 110.481v1.814l1.624.638v-2.452z" fill="#bd5e8b"/><path d="m48.47989 105.45786c-.1703614 3.469957-3.1206004 6.145295-6.5906349 5.976524-3.4700344-.16877-6.1467246-3.117783-5.9795451-6.587894.16882-3.47116 2.81393-10.2904 6.28509-10.12158s6.45389 7.26181 6.28509 10.73295z" fill="url(#ac)"/><path d="m52.393 113.086v2.294l1.487.807v-3.101z" fill="#bd5e8b"/><path d="m53.15228 114.87453c-2.1337521 0-3.8635-1.729748-3.8635-3.8635 0-2.13375 1.71409-7.30715 3.84784-7.30715s3.87916 5.1734 3.87916 7.30715c0 1.024664-.4070462 2.00736-1.131593 2.731907-.7245467.724547-1.7072431 1.131593-2.731907 1.131593z" fill="url(#ad)"/><rect fill="url(#ae)" height="32.4" rx="1.36" width="14.994" x="169.069" y="76.378"/><path d="m156.2223 112.01999v-.7394c0-.862669-.699331-1.562-1.562-1.562h-14.39861c-.862669 0-1.562.699331-1.562 1.562v.7394c0 1.27105 1.03038 1.30144 2.30143 1.30144h12.9198c1.271 0 2.30138-.03039 2.30138-1.30144z" fill="url(#af)"/><path d="m126.168 120.39h-1.624v-3.746-1.463h1.624v2.452z" fill="#e07cb2"/><rect fill="url(#ag)" height="15.65" rx="2.754" width="6.039" x="160.88" y="97.435"/><path d="m124.534 114.022v2.294l1.629.807v-3.101z" fill="#bd5e8b"/><path d="m125.40133 115.86286c-2.993015-.000006-5.41933-2.426325-5.41933-5.41934 0-2.993 2.42632-7.72792 5.41933-7.72792s5.41933 4.73491 5.41933 7.72792c.000003 1.437297-.57096 2.815728-1.587281 3.832051-1.016322 1.016324-2.394752 1.587289-3.832049 1.587289z" fill="url(#ah)"/><path d="m162.55204 112.04932 22.0668-13.7279s4.80395-2.66843 4.63389 4.79487-.85035 17.98707-.85035 17.98707h-19.898z" fill="url(#ai)"/><path d="m159.393 115.086v2.294l1.487.807v-3.101z" fill="#bd5e8b"/><path d="m133.67891 115.24609c0-2.13375 1.72975-7.71283 3.8635-7.71283s3.8635 5.57908 3.8635 7.71283c0 2.133752-1.729748 3.8635-3.8635 3.8635s-3.8635-1.729748-3.8635-3.8635z" fill="url(#aj)"/><path d="m162.53603 116.56727 18.54656-11.5397s4.182-1.93609 4.182 3.88408v14.7788h-20.2903z" fill="url(#ak)"/><path d="m151.79812 113.32143h2.62479c.477772 0 .935975-.189794 1.27381-.52763.337836-.337835.52763-.796038.52763-1.27381 0-.9949-.80653-.80143-1.80144-.80143h-2.62479c-.99491 0-1.80144 1.608-1.80144 2.60287z" fill="url(#J)" opacity=".38"/><path d="m51.251 52.326h1v2.194h-1z" fill="#fcd7a1"/><path d="m60.025 52.326h1v2.194h-1z" fill="#fcd7a1"/><path d="m149.997 93.321h4.464v1.397h-4.464z" fill="#bd5e8b"/><path d="m149.983 98.345h4.464v1.397h-4.464z" fill="#bd5e8b"/><path d="m149.983 103.319h4.464v1.397h-4.464z" fill="#bd5e8b"/><path d="m149.983 108.315h4.464v1.397h-4.464z" fill="#bd5e8b"/><path d="m154.447 114.734-4.557-.529.093-.868h4.464z" fill="url(#al)"/><path d="m184.627 105.819-.353-.409 3.611-7.073.194.164.18.203z" fill="#eabdc7"/><path d="m179.212 107.165-.5-.024.251-5.3.517-.321z" fill="#eabdc7"/><path d="m176.199 108.066-.258-4.346.484-.301.257 4.346z" fill="#eabdc7"/><path d="m173.073 110.021-.688-4.089.458-.285.686 4.08z" fill="#eabdc7"/><path d="m181.675 105.526-.488-.11 1.311-5.775.597-.372z" fill="#eabdc7"/><path d="m166.62661 114.02211 14.456-8.99454s2.37337-1.19757 3.6178.98353l.56416 2.90055c-1.7432.82923-19.38776 7.72476-19.38776 7.72476z" fill="url(#am)"/><path d="m166.91096 116.33078c-.16686 3.4307-2.49725 6.10506-5.20508 5.97336s-4.76769-3.01959-4.60083-6.45029 2.30049-10.19382 5.00832-10.06211 4.96445 7.10835 4.79759 10.53904z" fill="url(#an)"/><path d="m175.90599 123.69045s-5.357-2.63688-11.19532-5.15262c-5.831492-2.396316-12.043488-3.733834-18.34444-3.94978-17.97207 0-34.69447 9.1024-34.69447 9.1024z" fill="url(#ao)"/><path d="m169.925 111.759-1.152-3.58.438-.272 1.191 3.699z" fill="#eabdc7"/><path d="m185.262 108.687-.032-.638 3.985-3.511-.021.684z" fill="#eabdc7"/><path d="m185.28 111.895v-.571l3.774-2.389-.026.609z" fill="#eabdc7"/><path d="m185.271 115.128.007-.559 3.59-1.656-.034.566z" fill="#f4d7df"/><rect fill="url(#aq)" height="27.767" rx=".285" width="1" x="171.475" y="78.378"/><rect fill="url(#ar)" height="27.767" rx=".274" width="1" x="174.475" y="78.378"/><rect fill="url(#as)" height="27.767" rx=".281" width="1" x="177.475" y="78.378"/><path d="m172.94414 73.4558h9.04491c.391664 0 .70917.3175062.70917.70917v2.2126h-10.45922v-2.21667c0-.1870111.074293-.3663621.206533-.4985951.132241-.1322331.311596-.2065155.498607-.2065049z" fill="#fcd7a1"/><path d="m176.46587 72.47169v-1.34744c.002703-.4408941.362296-.7961257.80319-.79345h2.18489c.440894-.0026757.800487.3525559.80319.79345v2.33155h-3.79127" fill="#f49f60"/><path d="m182.69822 75.62417h-1.76348c-.416643-.0000083-.798909-.2310897-.99255-.6l-.11779-.22439c-.193642-.3689135-.575913-.5999954-.99256-.6h-1.29715c-.635664-.0000022-1.197381.4135958-1.3861 1.0206l-.00819.02632c-.06978.2244604-.277493.377403-.51255.3774h-1.99262c-.917558.0000009-1.821905.2186678-2.6381.63788l-.22491.11552h11.926z" fill="#f49f60" opacity=".71"/><rect fill="#fcd7a1" height="2.381" rx=".706" width="3.401" x="173.77" y="71.819"/><path d="m180.25714 71.31932v-9.07015s-.2044-.22322-.4112-.07972-.74636 8.16135-.74636 8.16135z" fill="url(#at)"/><rect fill="url(#as)" height="27.767" rx=".281" width="1" x="180.475" y="78.378"/><path d="m200.97776 122.28986h-6.97451c-.810914 0-1.46829-.657376-1.46829-1.46829v-31.76631c0-.5006581.25511-.966809.6768-1.23669l5.02393-3.21531c.349709-.2238184.777832-.2891107 1.17836-.17971l1.95059.53279c.638524.1744081 1.081408.7544852 1.08141 1.4164v34.44884c-.000011.810908-.657382 1.468274-1.46829 1.46828z" fill="url(#au)"/><path d="m202.41869 121.10336h-3.63147v-35.97691c0-.46119.18129-.822.62684-.7029l1.76964.42955c.744378.1989533 1.261951.8735631 1.26136 1.64407z" fill="url(#av)"/><path d="m103.07916 39.78232h-23.9796s-3.31632.00087.39084-3.45746c.4328927-.3174717.9009427-.5839778 1.39488-.79424.89594-.4853 3.46-3.88776 4.2517-4.23044 3.9389-1.70493 4.87579 1.21307 6.34192 1.40917.7041621.1100943 1.3707896-.3518456 1.515-1.04982.34018-1.85 3.036-5.95884 7.02407-4.29217 4.273 1.78571 3.18877 5.61224 3.14493 6.77615-.009746.4220933.173508.8255954.49776 1.096 1.45947 1.2506 4.7914 4.54281-.5815 4.54281zm-92.26192 16.24154s2.04082-7.65306 12.07483-2.21088c0 0 1.87075-6.69919 5.69728-5.47545 0 0 2.89116.20334 1.02041 7.68633 0 0 7.14286 1.82994 4.08163 3.04082h-33.16327s-1.27551-2.53065 10.28912-3.04082zm190.39119 1.53143s4.84694-9.52467 6.46258.93452c0 0 10.71429 3.06548 3.82653 3.06548h-22.78911s0-1.60174 4.16666-2.036c0 .00001 3.9966-5.10943 8.33334-1.964z" fill="#e6ecdb"/><path d="m17.195 71.854h-1.254l1.446 8.767h2.741z" fill="#f49f5d"/><path d="m30.907 116.481h-2.04v-35.86h1.168z" fill="url(#aw)"/><path d="m26.39069 88.60498h-7.88l-.24271-1.72443h8.1227c.3924204 0 .71054.3181196.71054.71054v.30335c0 .3924165-.3181135.7105345-.71053.71054zm.0012 5h-7.17744l-.24271-1.72443h7.42015c.3917742 0 .70937.3175958.70937.70937v.30569c0 .1881366-.074737.3685677-.2077697.5016003-.1330326.1330327-.3134637.2077697-.5016003.2077697zm-.00535 5h-6.46837l-.24271-1.72443h6.71108c.3947251 0 .7147145.3199849.71472.71471v.295c0 .394729-.319991.71472-.71472.71472zm.00893 5h-5.77358l-.24271-1.72443h6.01629c.3897971 0 .70579.315993.70579.70579v.31285c0 .389797-.3159929.70579-.70579.70579z" fill="#f1bbc6"/></g></g></g></svg>