<svg height="152" viewBox="0 0 410 152" width="410" xmlns="http://www.w3.org/2000/svg"><g fill="#f7004e" fill-rule="evenodd"><path d="m178.131784 28.3080475 21.868216 23.6919525-100 100-15.5494633-15.552609c48.5203363-39.9198342 79.7474193-75.966282 93.6812473-108.1393435zm-114.6086426 60.0342505 23.9744006 26.604368c-4.6860336 3.293123-9.5545944 6.608246-14.6056822 9.945367l-26.7641003-26.7646396c6.0112954-3.3249657 11.809886-6.5758974 17.3953819-9.7850954zm40.8693956-25.9320871 22.209298 21.8438836c-8.555408 7.6486082-18.184594 15.4266336-28.887557 23.3340765l-23.9408864-25.2383444c11.1443731-6.6418364 21.3519508-13.1893041 30.6191454-19.9396157zm-16.392537-62.4102109 12 16 12-16 39.922901.00084519c-15.129827 30.29477421-53.5985057 59.79985391-115.4060364 88.51523911l-36.5168646-36.5160843 48-52zm48.847049 33.1462286 20.733597 17.9324875c-6.357005 8.5991697-14.21849 17.379667-23.584453 26.3414918l-21.736381-20.9745251c9.258959-7.3212951 17.456137-14.9691163 24.587237-23.2994542zm18.976937-29.00370265 17.406837 18.85588035c-2.57014 7.0137998-6.242335 14.1604248-11.016585 21.4398752l-20.450682-17.3687136c5.39597-7.0687671 10.083555-14.6469327 14.06043-22.92704195z"/><path d="m1.90078106 47.090346c1.10905972-.0173541 3.26941563-.0269952 6.48106773-.0289235l1.80604591-.0006271c3.6426388-.0035417 6.4851348-.0424999 8.527488-.1168746.2339423-.0390467.3801562-.1561869.4386418-.3514205v-5.3591625l-.0292428-.9371213v-8.9026525h1.5498677l.3801562-.029285c1.6570912 0 2.8219288.3709438 3.4945129 1.1128315.672584.7418877 1.0478664 2.1866164 1.1258472 4.3341861l.1462139 1.2592568c.6823317 5.7593914 1.325673 8.6390871 1.9300239 8.6390871h.1754567c2.1054805.0976168 4.5277579.1464252 7.2668322.1464252 2.7390742 0 5.7657025-.1073785 9.0798849-.3221354l.1169711-.0878552c-.2339423-.7809344-.5068749-2.0499528-.818798-3.8070553l-.2924278-1.4935371c-.0779808-.5076074-.1803305-1.5032988-.3070493-2.9870742-.1267187-1.4837754-.2973016-2.8016023-.5117487-3.9534805-.916274-5.2713074-3.5383771-8.5902787-7.8663093-9.956914 2.7293266-1.3080652 4.8055644-2.8260065 6.2287133-4.5538239s2.1347233-3.8119362 2.1347233-6.2523563c0-3.51420488-1.1355948-6.2377137-3.4067845-8.17052641-2.2711896-1.93281271-5.5804982-2.95778915-9.9279257-3.07492931-1.6181008-.07809344-3.4214059-.11714016-5.4099153-.11714016l-9.3869341.08785512-4.0355044.05857008-3.7138338-.02928504h-1.78380992l-1.87153827-.02928504c-1.11122585 0-1.66683878.07809344-1.66683878.23428033-.0713441 5.69791359-.11005207 8.78933483-.11612391 9.27426363l-.00084723.0676645.08772836 6.6477043-.02924279.9956914-.02924278 7.5848256-.02924279 2.1963781v2.137808l-.11697114 12.153292.02924278.8785513-.05848557 2.6356537c.07798076.0585701.13646633.0878551.17545672.0878551l.05848557-.029285zm17.19475784-25.2144203c-.0974759-1.0152148-.1462139-3.0114784-.1462139-5.9887909s.1072236-4.6221557.3216707-4.9345294h1.6960815c1.9495191 0 3.5091343.2538036 4.6788457.761411 1.7350719.8199812 2.6026079 2.0987613 2.6026079 3.8363404 0 4.0803824-3.0509973 6.1889054-9.1529919 6.3255689zm37.7887808 25.3901306c.1657091 0 1.3597895-.1854719 3.5822412-.5564158 1.5011297-.1952336 3.6943386-.9956914 6.5796267-2.4013734.2924279 0 .7456911-.3367779 1.3597896-1.0103339.6140985-.6735559 1.0478665-1.2738993 1.3013039-1.80103.5653605 2.0304295 1.1599639 3.6313451 1.7838099 4.8027467.409399-.0195233 1.0040023-.029285 1.78381-.029285l1.0527402.029285h13.2177391l-.2924279-.6442709c-.5653605-1.6594856-.8480407-3.4165881-.8480407-5.2713074v-.6149858l.0292427-.2635654c0-.1757102-.0292427-.3123738-.0877283-.4099906v-.2635653l.0584856-1.9913828c0-.2928504-.0097476-.458799-.0292428-.4978457v-3.3970648l.1462139-2.0206678c0-.3709439-.0682332-.7809345-.2046995-1.2299718 0-2.7332705-.2144471-5.2224989-.6433413-7.4676854-1.0137499-5.3103541-3.899038-8.9026525-8.6558645-10.7768951-1.4036537-.5466541-2.5733651-.8834321-3.5091343-1.010334-.9357691-.1269018-1.5498676-.1903527-1.8422954-.1903527-.2924279 0-.506875-.0097617-.6433413-.0292851l-.8480408-.1171401c-.9552643-.13666356-1.5693628-.20499532-1.8422955-.20499532l-1.3159253.05857008h-.3801563c-.1169711-.05857008-.2339422-.08785512-.3509134-.08785512l-.9357691.08785512-1.7545672.08785514c-3.2556967.1171402-6.5357625.8346237-9.8401973 2.1524505-3.3044347 1.3178269-5.5317602 3.4800391-6.6819765 6.4866366-.6043509 1.5618689-.9552643 3.0163592-1.0527403 4.3634711l15.3153652.0004841c.7274445.003227 1.1930734.022589 1.3968868.058086.2241947.0390467.38503-.0195234.4825059-.1757102 0-3.1823078.9357692-4.7734617 2.8073074-4.7734617h.146214c.7603124 0 1.4182751.3026121 1.973888.9078362.5556129.6052242.8334194 1.1811634.8334194 1.7278175s.0584856.9175979.1754567 1.1128315c0 .9566447-.1364663 1.7473408-.409399 2.3720883-.5458653 1.2494951-2.1639661 1.9718595-4.8543024 2.1670931l-1.5791104.2049953c-.3704086.0976168-.8870312.1464252-1.5498676.1464252h-.7018269l-.2924279-.0292851-1.3451681.2049953-.9650119.0878551c-3.2362016.2928505-5.4196629.5759392-6.550384.8492662-4.405913 1.0737849-6.6088695 3.9827656-6.6088695 8.7269423 0 2.1866164.5946033 4.1096674 1.7838099 5.7691531 2.3784132 3.2408778 5.8972951 4.8613168 10.5566456 4.8613168zm9.2553416-9.1369328c-.6823317 0-1.3110516-.3709439-1.8861597-1.1128316s-.8626621-1.5618688-.8626621-2.4599434.1998257-1.6057965.5994771-2.1231655c.3996514-.5173691.8431669-.8785513 1.3305467-1.0835465.4873798-.2049953 1.1404686-.4539182 1.9592666-.7467686s1.4426441-.5564158 1.8715383-.7906961c.1559615.8980746.2339423 1.8351959.2339423 2.8113639l-.0292428.9371214v.8785512l-.0292428 1.8156725-.0584856.2928505c-.623846 1.0542614-1.6668387 1.5813922-3.128978 1.5813922zm42.2483057-30.10502225-.029243-8.02410125-18.0720414.05857008.0292427 3.95348055c.0389904.80045779.0584856 2.13780799.0584856 4.01205062zm-12.574398 38.33411875 1.228197-.1171402h10.644374l.52637-.05857c.058486-.0390468.126719-.6149859.2047-1.7278175.07798-1.1128315.116971-2.0694762.116971-2.869934l-.029243-4.3927561-.029243-.2635654v-.9078363c.019495-.0585701.029243-.0976168.029243-.1171402v-.9078362l-.087728-1.5521072v-1.5521072l.029242-3.6606301c0-1.2885418-.029242-3.4898007-.087728-6.6037768-.058486-3.113976-.097476-5.5983237-.116971-7.4530429l-.029243-2.7820789c0-.1171402-.019495-.1757103-.058485-.1757103-.038991 0-.097476.0097617-.175457.0292851l-9.9717901-.1171402-.4386417.029285h-2.1054806l-.3801562.0292851-.7310696-.0292851h-.8480408l-.4971274-.029285-2.2809373.029285v.8785513l-.3216706 22.5494816c-.1169711 2.5380369-.1754567 5.7301064-.1754567 9.5762084v1.3178269l.0292428.5564158v.2049952c.6628364.0780935 2.5148795.1171402 5.5561292.1171402zm33.914112-.1171402v-45.97751443c-4.390917-.03604313-7.718711-.05545097-9.983383-.05857008h-.54402l-7.427668.02928504.058486 46.00679947zm26.983571 1.0249765c1.852043 0 3.197211-.1366635 4.035505-.4099906 1.384158 0 3.021754-.273327 4.912788-.8199811l.994254-.2342804c.350914-.0390467.643341-.1171401.877284-.2342803 2.982764-.976168 5.448905-2.5526794 7.398425-4.7295341 1.949519-2.1768548 2.973016-4.6709641 3.070492-7.482328-.233942-2.5575603-.789555-4.5098963-1.666839-5.8570082-.48738-.5857009-.877283-.946883-1.169711-1.0835466-1.462139-1.2690184-2.860919-2.1036421-4.19634-2.503871-1.33542-.4002289-2.870667-.7174835-4.605739-.9517638-.974759-.1171402-1.778936-.2293995-2.412529-.336778-.633594-.1073785-1.569363-.2001144-2.807308-.2782079-1.237944-.0780934-2.319928-.1561869-3.245949-.2342803-.926022-.0780934-1.856917-.2293995-2.792686-.4539181-.935769-.2245187-1.661965-.6101051-2.178588-1.1567592-.516622-.5466541-.774933-1.1616399-.774933-1.8449575 0-.6833177.272932-1.2153292.818798-1.5960348.545865-.3807055 1.247692-.5710583 2.10548-.5710583.857789 0 1.64247.2245187 2.354044.673556.711575.4490373 1.184333.9956914 1.418275 1.6399623 3.314183-.0390468 5.760829-.0585701 7.33994-.0585701l2.661093.029285 6.433413-.2928504.204699.0585701c-.233942-1.6204389-1.15509-3.1237377-2.763443-4.5098963s-3.294687-2.3183991-5.059002-2.7967215c-1.764314-.4783223-3.806436-.8053386-6.126363-.9810488-.935769-.0585701-1.50113-.0976168-1.696082-.1171402l-5.14673-.23428032-3.713834.20499532c-.116971-.0390468-.350913-.0585701-.701827-.0585701-.350913 0-.994254.1024976-1.930024.3074929-.935769.2049953-1.657091.3465397-2.163966.4246331-4.990768.6442709-8.597379 2.0304295-10.81983 4.1584758-1.774063 1.7180558-2.661094 4.1487142-2.661094 7.2919753 0 3.5142049 1.471887 6.1889053 4.415661 8.0241012.604351.3709439 1.315925.7126027 2.134723 1.0249765.818798.3123737 1.583984.5612966 2.295559.7467685.711574.1854719 1.530372.366063 2.456394.5417733.926021.1757102 1.735072.3074929 2.427151.395348s1.496256.1952336 2.41253.3221355c.916274.1269018 1.608353.2293995 2.076238.3074929.467884.0780934 1.189206.1561869 2.163966.2342803.974759.0780935 1.769188.1708294 2.383287.2782079.614098.1073785 1.281809.2782079 2.003131.5124882.721322.2342804 1.267187.5905817 1.637596 1.068904.370408.4783224.555612 1.0737849.555612 1.7863875 0 .7126027-.331418 1.2934227-.994254 1.74246-.662837.4490373-1.569363.6735559-2.719579.6735559-1.150217 0-2.163966-.273327-3.04125-.8199811s-1.315925-1.2494951-1.315925-2.108523c0-.273327.009747-.4685606.029242-.5857008-1.6181 0-3.99164.0146425-7.120618.0439276-3.128978.029285-5.609741.0439275-7.442289.0439275s-3.265444-.0390467-4.298689-.1171401c.019495 4.5098963 3.704086 7.6726807 11.053773 9.4883533v-.0292851c3.450648.9761681 6.68685 1.4642521 9.708605 1.4642521l.32167-.0292851h2.134723zm-131.5916992 68.7339437c.2339423 0 1.130721-.048808 2.6903362-.146425l1.4913821-.087855c.1559615.019523.9016526.029285 2.2370731.029285s3.7820669-.292851 7.3399392-.878552c3.5578722-.5857 5.7949453-1.229971 6.7112192-1.932812.0194952-.019524.0292428-.048809.0292428-.087855v-.05857h-.0292428l.0877284-.234281c-.0194952-.05857-.0292428-.097617-.0292428-.11714v-.409991l.3509134-22.2273457c-.4873797-.4490373-2.4661415-.6735559-5.9362854-.6735559l-.6725841.029285-1.974634-.0002988c-.9840098-.0025898-2.3630458-.0220136-4.1371082-.0582713h-.2924278c-2.1054806-.0390467-4.0062616-.05857-5.7023432-.05857h-1.9592666c-.4678846.3318971-.7018269.6637942-.7018269.9956914v6.5598492c0 .7223643.0194952 1.249495.0584856 1.5813922l.7310696.761411.3509135-.029285h3.0412496l.2924279-.1464252 2.1054806.1757102-.146214 4.6270369c-1.6960815.566177-3.4847652.849266-5.3660511.849266s-3.2654444-.209876-4.1524756-.629629c-.8870311-.419752-1.7107029-1.16652-2.4710153-2.240305-.2144471-.312374-.3996514-.766292-.555613-1.361755-.1559615-.5954621-.2924278-1.1421162-.409399-1.6399619-.1169711-.4978457-.1754567-1.3812778-.1754567-2.6502962v-2.0206679c0-.1366635-.0097476-.4148714-.0292428-.8346236-.0194951-.4197523-.0146213-.9517639.0146214-1.5960348.0292428-.6442709.0584856-1.3178268.0877284-2.0206678s.1120973-1.4154437.2485637-2.137808c.1364663-.7223644.2924278-1.4252053.4678845-2.108523.1754568-.6833176.4386418-1.3227076.7895552-1.9181702.3509135-.5954625.7505649-1.1177124 1.1989543-1.5667496.4483893-.4490373 1.0088761-.8004578 1.6814601-1.0542615.6725841-.2538037 1.3890323-.3807056 2.1493448-.3807056.7603124 0 1.3744109.0878552 1.8422954.2635654 1.0332451.3514205 1.7253244 1.3178269 2.0762378 2.8992191v-.0878551c.1169712.488084.2144471.7516493.2924279.7906961l14.855335.2635653c.7213221 0 1.1404687-.1464252 1.2574398-.4392756-.0779808-.5076074-.1705829-1.3031843-.2778065-2.3867308-.1072235-1.0835466-.1998257-1.8791235-.2778064-2.3867309-.4288942-1.8351959-1.3402944-3.5093241-2.7342005-5.0223845-1.3939061-1.5130605-3.0656187-2.6698196-5.0151377-3.4702774-1.5986056-.5271307-3.4555225-.9273596-5.5707506-1.2006867-2.1152282-.273327-3.8941643-.4099905-5.3368084-.4099905-7.8760569 0-14.1193916 1.9620977-18.73000412 5.8862932s-6.91591878 9.6787061-6.91591878 17.2635317c0 7.5848257 2.13959714 13.4369528 6.41879142 17.5563818s10.51278138 6.179144 18.70076138 6.179144zm41.5757214-40.0033661-.0292428-8.0241012-18.0720414.05857.0292428 3.9534806c.0389903.8004578.0584855 2.137808.0584855 4.0120506zm-12.5743978 38.3341191 1.228197-.117141h10.644374l.5263701-.05857c.0584856-.039046.1267187-.614985.2046995-1.727817s.1169711-2.069476.1169711-2.869934l-.0292427-4.392756-.0292428-.263566v-.907836c.0194952-.05857.0292428-.097617.0292428-.11714v-.907836l-.0877284-1.552107v-1.5521076l.0292428-3.6606302c0-1.2885418-.0292428-3.4898007-.0877284-6.6037767-.0584855-3.1139761-.0974759-5.5983237-.1169711-7.453043l-.0292428-2.7820789c0-.1171401-.0194952-.1757102-.0584856-.1757102-.0389903 0-.0974759.0097617-.1754567.029285l-9.9717898-.1171401-.4386418.029285h-2.1054806l-.3801562.029285-.7310696-.029285h-.8480408l-.4971274-.029285-2.2809372.029285v.8785512l-.3216707 22.5494815c-.1169711 2.538037-.1754567 5.730107-.1754567 9.576209v1.317826l.0292428.556416v.204995c.6628365.078094 2.5148795.117141 5.5561292.117141zm25.8431029-.117141 10.4104316-.029285v-5.388447l-.0584856-3.074929c0-3.865626.7213221-6.7648449 2.1639662-8.6976576.4678845-.6247476 1.0186237-1.1372358 1.6522174-1.5374647.6335936-.4002289 1.4134013-.7272452 2.3394228-.9810488.9260215-.2538037 1.8276741-.3807056 2.7049577-.3807056s1.5206246.0488084 1.9300236.1464252v-16.3410529h-1.081983c-.0974758-.0390467-.2924277-.0585701-.5848556-.0585701-1.3841585.0195234-3.0315021.4099906-4.9420307 1.1714017l-.6725841.2635653.1169712-.029285c-.6433413.3123738-.9942548.5271307-1.0527403.6442709l-1.1697114.673556c-2.046995 1.4056819-3.4311535 3.7777702-4.1524756 7.1162649h-1.0234975c-.0779807-.3709438-.3411658-1.9328127-.7895552-4.6856065l-.6433413-3.9241955h-7.7785809l-7.778581.029285v17.6003097l.0292428 17.483169zm41.8973917 0v-45.977514c-4.390916-.0360431-7.718711-.0554509-9.983383-.0585701h-.544019l-7.427668.0292851.058486 46.006799zm26.983572 1.024977c1.852043 0 3.197211-.136664 4.035504-.409991 1.384159 0 3.021755-.273327 4.912788-.819981l.994255-.23428c.350913-.039047.643341-.11714.877283-.23428 2.982765-.976168 5.448906-2.55268 7.398425-4.729535 1.949519-2.176854 2.973017-4.670964 3.070493-7.482328-.233943-2.5575598-.789556-4.5098959-1.666839-5.8570078-.48738-.5857008-.877284-.946883-1.169712-1.0835465-1.462139-1.2690185-2.860919-2.1036421-4.196339-2.503871-1.335421-.4002289-2.870667-.7174835-4.605739-.9517639-.974759-.1171401-1.778936-.2293994-2.41253-.3367779-.633593-.1073785-1.569363-.2001145-2.807307-.2782079-1.237945-.0780935-2.319928-.1561869-3.245949-.2342803-.926022-.0780935-1.856917-.2293995-2.792686-.4539182-.93577-.2245186-1.661965-.610105-2.178588-1.1567591-.516622-.5466541-.774934-1.16164-.774934-1.8449576s.272933-1.2153292.818798-1.5960347c.545866-.3807056 1.247692-.5710583 2.105481-.5710583.857788 0 1.64247.2245186 2.354044.6735559.711575.4490373 1.184333.9956914 1.418275 1.6399623 3.314183-.0390467 5.760829-.0585701 7.339939-.0585701l2.661094.0292851 6.433413-.2928504.204699.05857c-.233942-1.6204389-1.15509-3.1237377-2.763443-4.5098963s-3.294687-2.3183991-5.059002-2.7967214-3.806436-.8053386-6.126364-.9810489c-.935769-.0585701-1.501129-.0976168-1.696081-.1171401l-5.14673-.2342804-3.713834.2049953c-.116971-.0390467-.350914-.0585701-.701827-.0585701s-.994255.1024977-1.930024.307493-1.657091.3465396-2.163966.4246331c-4.990769.6442709-8.597379 2.0304295-10.819831 4.1584758-1.774062 1.7180557-2.661093 4.1487141-2.661093 7.2919752 0 3.5142049 1.471887 6.1889054 4.415661 8.0241013.60435.3709438 1.315925.7126026 2.134723 1.0249764s1.583984.5612966 2.295559.7467686c.711574.1854719 1.530372.3660629 2.456394.5417729.926021.175711 1.735071.307493 2.427151.395348.692079.087855 1.496256.195234 2.41253.322136.916273.126902 1.608353.229399 2.076237.307493.467885.078093 1.189207.156187 2.163966.23428.97476.078094 1.769189.170829 2.383287.278208.614099.107378 1.281809.278208 2.003131.512488.721322.234281 1.267188.590582 1.637596 1.068904.370409.478323.555613 1.073785.555613 1.786388 0 .712602-.331418 1.293422-.994255 1.74246-.662836.449037-1.569362.673556-2.719579.673556-1.150216 0-2.163966-.273327-3.041249-.819982-.877284-.546654-1.315926-1.249495-1.315926-2.108523 0-.273327.009748-.46856.029243-.5857-1.618101 0-3.99164.014642-7.120618.043927s-5.609741.043928-7.442289.043928-3.265444-.039047-4.29869-.11714c.019496 4.509896 3.704087 7.67268 11.053773 9.488353v-.029285c3.450649.976168 6.686851 1.464252 9.708605 1.464252l.321671-.029285h2.134723z" transform="translate(232 5)"/></g></svg>