<svg height="152" viewBox="0 0 556 152" width="556" xmlns="http://www.w3.org/2000/svg"><g fill="#ff313e" fill-rule="evenodd"><path d="m112.090002 127.164349 3.91 24.835651-19.4240001-19.708651zm3.91-103.1689999-13.25729 43.7910648 6.764349 42.9678661c8.522906-2.841444 17.560587-6.096886 26.867807-9.71 46.430243-18.0244779 81.986145-38.1246246 79.416593-44.8950347-1.221835-3.2186157-10.840591-2.8450849-25.585048.3692742l-5.21619-5.7155935c43.978809-13.2455158 75.806927-17.8029027 78.783754-9.9604951 4.227663 11.1382878-51.342238 43.070656-124.118944 71.3229771-72.7767055 28.252321-135.20115717 42.126016-139.42767003 30.987286-2.92319778-7.69872 22.72514183-25.332967 62.87840283-44.8196576l-30.1057639-30.5466225 39.8399993-43.7910648zm-47.712002 79.5946509.1021833-.057611c-14.0032197 7.972533-22.0043122 14.551052-20.7367654 17.888981 1.4769825 3.892925 15.2364529 2.531501 35.4913921-2.755099zm101.615345-103.59c.926906 7.52268695 6.908194 13.6791401 14.830517 15.6769227l.26516.0637794c-7.598836 1.4079547-13.661647 6.5840679-15.651705 13.2535969-1.548498-6.6726755-7.124959-12.0205375-14.345877-13.9043644 7.848361-1.9408492 13.807312-7.84110132 14.901905-15.0899346z"/><path d="m14.5295024 49.0896952c11.6044211 0 17.4066317-4.4496507 17.4066317-13.3489522 0-2.775051-.6353661-5.0237992-1.9060981-6.7462446-1.2707321-1.7224455-2.7572488-2.9903567-4.4595503-3.8037337-1.7023014-.8133771-3.8721364-1.6506769-6.5095048-2.5118996-2.205799-.6698399-3.8241842-1.2918341-4.8551555-1.8659826s-1.5464569-1.3636027-1.5464569-2.3683625c0-.4306114.0719282-.813377.2157846-1.148297.1438565-.3349199.311689-.5502256.5034977-.645917.0959043-.0478457.5034976-.0717686 1.2227799-.0717686 1.7262775 0 5.7063062.2153057 11.9400861.6459171l1.6543493.0717685c.2877129-1.3875255.5634378-2.9185881.8271746-4.5931878.2637369-1.6745998.4195814-2.99035671.4675335-3.94727084-3.4046028-1.00475985-7.7922249-1.50713977-13.162866-1.50713977-2.1098948 0-4.363646.23922853-6.76125363.7176856-2.39760766.47845707-3.98002872.98083699-4.74726317 1.50713977-1.00699522.71768564-1.99001436 2.09324964-2.94905742 4.12669224-.95904307 2.0334425-1.4385646 4.1027693-1.4385646 6.2079804 0 2.9664339.64735407 5.3587192 1.94206221 7.1768561 1.29470813 1.8181368 2.80520096 3.1578166 4.53147848 4.0190394 1.72627751.8612227 3.90810053 1.6985225 6.54546893 2.5118996 2.205799.7176856 3.764244 1.3277183 4.6753349 1.8300982.9110909.50238 1.3666364 1.232027 1.3666364 2.1889411 0 .33492-.0839163.7296471-.2517488 1.1841813-.1678326.4545342-.3956053.7774927-.6833182.9688755-.1918086.1435372-.7912105.2153057-1.7982057.2153057-1.7262776 0-4.2797297-.1674599-7.66035652-.5023799-3.38062681-.3349199-5.91010289-.6219942-7.58842825-.8612227-.28771292.9569141-.58741388 2.4042468-.89910288 4.3419979-.31168899 1.9377511-.51548564 3.4090066-.61138995 4.4137664 2.2537512.5263028 4.75925121.9569142 7.51650002 1.2918341 2.75724878.33492 5.09491628.5023799 7.01300238.5023799zm32.9225784-.1435371c1.582421 0 3.2487584-.1435371 4.999012-.4306113 1.7502535-.2870743 3.0809258-.5980714 3.9920167-.9329913 0-3.0142796-.2157847-5.6697163-.6473541-7.9663102l-2.4455598.0717685c-2.0139904 0-3.1888182-.1674599-3.5244832-.5023799-.2397608-.2392285-.3836173-.8253384-.4315694-1.7583297-.0479522-.9329913-.0719282-1.8300983-.0719282-2.691321v-12.4159609h7.6243923v-7.033319h-7.6243923v-8.39692151l-8.9910288.50237992-3.2367703 7.89454159-5.3946173.50238v6.530939h5.3946173v17.6550658c0 3.0621252.8991029 5.3228349 2.6973086 6.7821289 1.7982057 1.4592941 4.3516579 2.1889411 7.6603565 2.1889411zm18.5369324-37.7502627c1.6303732 0 3.0209856-.5502256 4.1718373-1.65067688 1.1508517-1.10045126 1.7262775-2.4162082 1.7262775-3.94727082s-.5754258-2.84681956-1.7262775-3.94727081c-1.1508517-1.10045126-2.5414641-1.65067689-4.1718373-1.65067689s-3.0329737.55022563-4.2078015 1.65067689c-1.1748277 1.10045125-1.7622416 2.41620819-1.7622416 3.94727081s.5874139 2.84681956 1.7622416 3.94727082c1.1748278 1.10045128 2.5774283 1.65067688 4.2078015 1.65067688zm6.1138995 37.1043457v-33.0135378h-12.2997273v33.0135378zm19.9035687.9329913c4.7952154 0 9.1348856-.6459171 13.0190096-1.9377512l-1.078923-7.6074674c-3.260747.1913829-5.3706416.2870743-6.3296846.2870743-2.2057991 0-3.9560527-.2153057-5.2507608-.6459171-1.2947081-.4306113-2.2417632-1.2081041-2.8411651-2.3324782s-.8991029-2.7391667-.8991029-4.8443778c0-1.5789083.1558445-3.2774309.4675335-5.0955678.311689-1.8181368.6593421-2.7989738 1.0429594-2.9425109.7192823-.2870743 2.3736316-.4306114 4.9630478-.4306114 2.6373685 0 5.4425697.0956914 8.4156027.2870742.239761-1.2439883.467534-2.6673981.683318-4.2702293.215785-1.6028312.37163-3.0023181.467534-4.1984608-3.356651-.5741485-6.6893255-.8612227-9.9980241-.8612227-3.1648421 0-6.2217918.3827657-9.1708493 1.148297-2.9490574.7655313-4.9270837 1.6985226-5.9340789 2.7989738-.8631388.9569142-1.6783254 2.8109353-2.4455598 5.5620634-.7672345 2.7511282-1.1508517 5.5381406-1.1508517 8.3610373 0 5.7414848 1.3306722 9.9638685 3.9920167 12.6671509s6.6773374 4.0549237 12.0479785 4.0549237zm28.3910996-.9329913v-22.7506336c1.438565-.5741485 2.829177-.8851456 4.171838-.9329913l1.22278-.0717686c.719282 0 1.354648.0478457 1.906098.1435371.551449.0956915.899103.2392286 1.042959.4306114.239761.3827657.359641 1.4234098.359641 3.1219324v20.0593126h12.299727l-.000562-17.9005243c-.008616-4.038809-.116321-7.0669604-.323115-9.0844544-.215784-2.1052111-.539461-3.420968-.971031-3.9472708-.767234-.9090684-1.906098-1.6028312-3.416591-2.0812883-1.510492-.478457-3.128878-.7176856-4.855155-.7176856-4.555455 0-8.463555 1.8420598-11.724302 5.5261792l-.071928-.0717686c.239761-1.1482969.359641-3.4448909.359641-6.8897818v-8.39692152l-12.299727.50237992v43.0611362zm39.036478.645917c1.582421 0 3.248759-.1435371 4.999012-.4306113 1.750254-.2870743 3.080926-.5980714 3.992017-.9329913 0-3.0142796-.215785-5.6697163-.647354-7.9663102l-2.44556.0717685c-2.01399 0-3.188818-.1674599-3.524483-.5023799-.239761-.2392285-.383617-.8253384-.43157-1.7583297-.047952-.9329913-.071928-1.8300983-.071928-2.691321v-12.4159609h7.624393v-7.033319h-7.624393v-8.39692151l-8.991029.50237992-3.23677 7.89454159-5.394617.50238v6.530939h5.394617v17.6550658c0 3.0621252.899103 5.3228349 2.697309 6.7821289 1.798205 1.4592941 4.351658 2.1889411 7.660356 2.1889411zm18.536933-37.7502627c1.630373 0 3.020985-.5502256 4.171837-1.65067688 1.150852-1.10045126 1.726277-2.4162082 1.726277-3.94727082s-.575425-2.84681956-1.726277-3.94727081c-1.150852-1.10045126-2.541464-1.65067689-4.171837-1.65067689-1.630374 0-3.032974.55022563-4.207802 1.65067689-1.174828 1.10045125-1.762241 2.41620819-1.762241 3.94727081s.587413 2.84681956 1.762241 3.94727082c1.174828 1.10045128 2.577428 1.65067688 4.207802 1.65067688zm6.113899 37.1043457v-33.0135378h-12.299727v33.0135378zm17.386081 0v-22.7506336c1.438564-.5741485 2.829177-.8851456 4.171837-.9329913.335665-.0478457.839163-.0717686 1.510493-.0717686 1.390612 0 2.277727.2392286 2.661344.7176856.239761.3827657.359642 1.3396798.359642 2.8707424v20.1669655h12.299727v-17.3679916c0-4.3061136-.107892-7.511776-.323677-9.6169871s-.539462-3.420968-.971031-3.9472708c-.767235-.9090684-1.906098-1.6028312-3.416591-2.0812883-1.510493-.478457-3.128878-.7176856-4.855156-.7176856-4.795215 0-8.9191 2.0812883-12.371655 6.2438648l-1.366637-5.5261792h-9.998023v33.0135378zm40.97854 14.353712c2.541464 0 4.819191-.1674599 6.833182-.5023799 2.01399-.3349199 3.308698-.7416084 3.884124-1.2200655 4.555455-3.7798108 6.833182-9.0906843 6.833182-15.9326204v-28.563887c-3.260746-.5263028-6.1139-.9449527-8.559459-1.2559498-2.44556-.3109971-4.795216-.4664956-7.048967-.4664956-2.973033 0-5.646366.1794214-8.019998.5382642-2.373631.3588428-4.087921.897107-5.142868 1.6147926-1.630373 1.1482969-2.913093 3.1937009-3.84816 6.1362119-.935067 2.9425109-1.402601 6.0883662-1.402601 9.4375657 0 5.0716449 1.030972 8.9232243 3.092914 11.5547382 2.061943 2.6315138 5.106904 3.9472708 9.134885 3.9472708 1.486517 0 3.164842-.3827657 5.034976-1.148297s3.404603-2.0334425 4.603407-3.8037337v1.794214c0 1.2918341-.023976 2.2726711-.071928 2.942511-.191809 2.4879768-.479522 3.923348-.863139 4.3061136-.287713.33492-1.018983.5861099-2.193811.7535699s-2.601404.25119-4.27973.25119c-3.308698 0-6.689325-.2631514-10.14188-.7894542-.239761 1.0047598-.467533 2.3683625-.683318 4.0908079-.215785 1.7224455-.299701 3.109971-.251749 4.1625765 3.212794 1.4353712 7.57644 2.1530568 13.090938 2.1530568zm.431569-23.6836249c-1.630373 0-2.74526-.5263027-3.344662-1.5789083-.599402-1.0526055-.899103-2.8946652-.899103-5.5261791 0-1.9138283.155844-3.7439266.467533-5.4902949s.731271-2.8109353 1.258744-3.1937009c.383617-.2870743 1.318684-.4306114 2.805201-.4306114.959043 0 1.678326.0239229 2.157847.0717686 1.054947.0956914 1.846158.1913828 2.373632.2870742v14.9996291c-1.438565.5741485-3.044962.8612227-4.819192.8612227zm-229.0708609 77.1113308v-15.214935c2.5894163 0 4.5554546-.023922 5.8981149-.071768.5274737.143537.935067.442573 1.2227799.897107s.5394617 1.148297.7552464 2.081288.3716292 1.59087.4675335 1.973635l2.4455598 10.334673h13.5944355l-3.5244833-13.492489c-.3836172-1.435371-1.1388636-2.6195526-2.2657393-3.5525439-1.1268756-.9329913-2.529476-1.4712555-4.2078014-1.6147926v-.4306114c2.9730335-.3349199 5.1308804-1.3277184 6.4735407-2.9783952 1.3426603-1.6506769 2.0139904-3.9353094 2.0139904-6.8538976 0-3.1099709-.7072942-5.5620634-2.1218828-7.3562774-1.4145885-1.794214-3.5364713-3.0621252-6.3656483-3.8037337-2.829177-.7416084-6.5214928-1.1124127-11.0769474-1.1124127-5.0349761 0-10.4535694.2153057-16.25577994.6459171v40.5492364zm2.5174881-23.2530134c-1.246756 0-2.0859187-.0239228-2.5174881-.0717686v-9.8322927c1.6303732-.0956914 2.7092967-.1435371 3.2367704-.1435371 2.3496555 0 4.0399689.3588428 5.0709402 1.0765284s1.5464569 2.0573654 1.5464569 4.0190393c0 2.1052111-.2877129 3.4448909-.8631387 4.0190394-.623378.6219942-2.7812249.9329913-6.4735407.9329913zm33.9295735 23.9706994c4.7952154 0 8.9191005-2.081289 12.3716556-6.243865l1.3666363 5.526179h9.998024v-33.0135376h-12.2997273v22.7506336c-1.4385646.574149-2.829177.885146-4.1718373.932991l-1.1508517.071769c-1.5824211 0-2.5414641-.239229-2.8771292-.717686-.2397608-.33492-.3836172-1.148297-.4315694-2.440131-.0479521-1.291834-.0719282-2.416208-.0719282-3.373122v-17.2244546h-12.2997273l.0005619 17.9005246c.0086164 4.038809.1163214 7.06696.3231151 9.084454.2157847 2.105211.5394617 3.420968.9710311 3.947271.7672345.909068 1.9060981 1.602831 3.4165909 2.081288 1.5104929.478457 3.128878.717686 4.8551555.717686zm44.5749516.071768c3.11689 0 5.8981147-.239228 8.3436747-.717685s4.291718-1.220066 5.538474-2.224826c1.054947-.813377 2.002002-2.691321 2.841165-5.633832.839162-2.942511 1.258744-6.495054 1.258744-10.6576309 0-5.6936391-1.018983-9.6648327-3.05695-11.913581-2.037966-2.2487482-4.927084-3.3731223-8.667352-3.3731223-2.2537509 0-4.2197892.5263028-5.8981145 1.5789083-1.6783254 1.0526056-3.0689378 2.4162082-4.1718374 4.090808l-.4315693-.50238c.1918086-.478457.335665-1.1841812.4315693-2.1171725.0959044-.9329913.1558445-2.0932497.1798206-3.4807752.0207793-1.2025221.0325542-2.027701.0353248-2.4755368l.0006393-6.9261446-12.4435837.50238v41.625765c2.3496555.765531 5.011 1.327718 7.9840335 1.686561s5.6583541.538264 8.0559617.538264zm1.7982058-8.038078c-1.9180862 0-3.7642441-.143538-5.5384737-.430612v-16.2196944c1.870134-.33492 3.4046029-.50238 4.6034067-.50238 1.3426603 0 2.3376675.3229586 2.9850215.9688756.6473541.645917 1.0549474 1.5191012 1.2227799 2.6195525.1678325 1.1004512.2517485 2.607591.2517485 4.5214193 0 1.626754-.107892 3.325277-.3236767 5.095568s-.4675335 2.894665-.7552464 3.373122c-.2397608.382766-1.0549474.574149-2.4455598.574149zm27.9595309 20.166965c1.918086 0 3.704303-.143537 5.358653-.430611 1.654349-.287075 2.865141-.693763 3.632375-1.220066 1.342661-.956914 2.685321-2.643475 4.027981-5.059683 1.34266-2.416209 2.853153-6.279749 4.531479-11.590623l8.631387-27.6308956h-13.019009l-5.178833 24.4730786h-.215785l-.071928-1.363602-5.754258-23.1094766h-13.01901l11.076948 32.1523146 4.963047.287075c-.623378 1.531062-1.294708 2.990356-2.01399 4.377882-.719282.047846-1.798206.071768-3.23677.071768-1.918086 0-3.884125-.047845-5.898115-.143537-.239761 1.148297-.43157 2.547784-.575426 4.198461s-.191809 3.050164-.143856 4.198461c1.726277.526303 4.02798.789454 6.90511.789454zm50.452515-12.918341v-16.5067687l.071928-5.5979477h.215785l3.23677 4.8802621 11.148876 17.2244543h12.227799v-40.9080792h-11.940086v22.678865h-.215785c-.863139-1.6745997-2.109895-3.7319651-3.740268-6.1720962l-10.861162-16.5067688h-12.155871v40.9080792zm62.557009 0v-9.47345h-16.759277v-31.4346292h-12.947082v40.9080792z" transform="translate(296 20)"/></g></svg>