<svg height="152" viewBox="0 0 556 152" width="556" xmlns="http://www.w3.org/2000/svg"><g fill="#ff313e" fill-rule="evenodd"><path d="m112.090002 127.164349 3.91 24.835651-19.4240001-19.708651zm3.91-103.1689999-13.25729 43.7910648 6.764349 42.9678661c8.522906-2.841444 17.560587-6.096886 26.867807-9.71 46.430243-18.0244779 81.986145-38.1246246 79.416593-44.8950347-1.221835-3.2186157-10.840591-2.8450849-25.585048.3692742l-5.21619-5.7155935c43.978809-13.2455158 75.806927-17.8029027 78.783754-9.9604951 4.227663 11.1382878-51.342238 43.070656-124.118944 71.3229771-72.7767055 28.252321-135.20115717 42.126016-139.42767003 30.987286-2.92319778-7.69872 22.72514183-25.332967 62.87840283-44.8196576l-30.1057639-30.5466225 39.8399993-43.7910648zm-47.712002 79.5946509.1021833-.057611c-14.0032197 7.972533-22.0043122 14.551052-20.7367654 17.888981 1.4769825 3.892925 15.2364529 2.531501 35.4913921-2.755099zm101.615345-103.59c.926906 7.52268695 6.908194 13.6791401 14.830517 15.6769227l.26516.0637794c-7.598836 1.4079547-13.661647 6.5840679-15.651705 13.2535969-1.548498-6.6726755-7.124959-12.0205375-14.345877-13.9043644 7.848361-1.9408492 13.807312-7.84110132 14.901905-15.0899346z"/>
<path d="m-229.0708609 77.1113308v-15.214935c2.5894163 0 4.5554546-.023922 5.8981149-.071768.5274737.143537.935067.442573 1.2227799.897107s.5394617 1.148297.7552464 2.081288.3716292 1.59087.4675335 1.973635l2.4455598 10.334673h13.5944355l-3.5244833-13.492489c-.3836172-1.435371-1.1388636-2.6195526-2.2657393-3.5525439-1.1268756-.9329913-2.529476-1.4712555-4.2078014-1.6147926v-.4306114c2.9730335-.3349199 5.1308804-1.3277184 6.4735407-2.9783952 1.3426603-1.6506769 2.0139904-3.9353094 2.0139904-6.8538976 0-3.1099709-.7072942-5.5620634-2.1218828-7.3562774-1.4145885-1.794214-3.5364713-3.0621252-6.3656483-3.8037337-2.829177-.7416084-6.5214928-1.1124127-11.0769474-1.1124127-5.0349761 0-10.4535694.2153057-16.25577994.6459171v40.5492364zm2.5174881-23.2530134c-1.246756 0-2.0859187-.0239228-2.5174881-.0717686v-9.8322927c1.6303732-.0956914 2.7092967-.1435371 3.2367704-.1435371 2.3496555 0 4.0399689.3588428 5.0709402 1.0765284s1.5464569 2.0573654 1.5464569 4.0190393c0 2.1052111-.2877129 3.4448909-.8631387 4.0190394-.623378.6219942-2.7812249.9329913-6.4735407.9329913zm33.9295735 23.9706994c4.7952154 0 8.9191005-2.081289 12.3716556-6.243865l1.3666363 5.526179h9.998024v-33.0135376h-12.2997273v22.7506336c-1.4385646.574149-2.829177.885146-4.1718373.932991l-1.1508517.071769c-1.5824211 0-2.5414641-.239229-2.8771292-.717686-.2397608-.33492-.3836172-1.148297-.4315694-2.440131-.0479521-1.291834-.0719282-2.416208-.0719282-3.373122v-17.2244546h-12.2997273l.0005619 17.9005246c.0086164 4.038809.1163214 7.06696.3231151 9.084454.2157847 2.105211.5394617 3.420968.9710311 3.947271.7672345.909068 1.9060981 1.602831 3.4165909 2.081288 1.5104929.478457 3.128878.717686 4.8551555.717686zm44.5749516.071768c3.11689 0 5.8981147-.239228 8.3436747-.717685s4.291718-1.220066 5.538474-2.224826c1.054947-.813377 2.002002-2.691321 2.841165-5.633832.839162-2.942511 1.258744-6.495054 1.258744-10.6576309 0-5.6936391-1.018983-9.6648327-3.05695-11.913581-2.037966-2.2487482-4.927084-3.3731223-8.667352-3.3731223-2.2537509 0-4.2197892.5263028-5.8981145 1.5789083-1.6783254 1.0526056-3.0689378 2.4162082-4.1718374 4.090808l-.4315693-.50238c.1918086-.478457.335665-1.1841812.4315693-2.1171725.0959044-.9329913.1558445-2.0932497.1798206-3.4807752.0207793-1.2025221.0325542-2.027701.0353248-2.4755368l.0006393-6.9261446-12.4435837.50238v41.625765c2.3496555.765531 5.011 1.327718 7.9840335 1.686561s5.6583541.538264 8.0559617.538264zm1.7982058-8.038078c-1.9180862 0-3.7642441-.143538-5.5384737-.430612v-16.2196944c1.870134-.33492 3.4046029-.50238 4.6034067-.50238 1.3426603 0 2.3376675.3229586 2.9850215.9688756.6473541.645917 1.0549474 1.5191012 1.2227799 2.6195525.1678325 1.1004512.2517485 2.607591.2517485 4.5214193 0 1.626754-.107892 3.325277-.3236767 5.095568s-.4675335 2.894665-.7552464 3.373122c-.2397608.382766-1.0549474.574149-2.4455598.574149zm27.9595309 20.166965c1.918086 0 3.704303-.143537 5.358653-.430611 1.654349-.287075 2.865141-.693763 3.632375-1.220066 1.342661-.956914 2.685321-2.643475 4.027981-5.059683 1.34266-2.416209 2.853153-6.279749 4.531479-11.590623l8.631387-27.6308956h-13.019009l-5.178833 24.4730786h-.215785l-.071928-1.363602-5.754258-23.1094766h-13.01901l11.076948 32.1523146 4.963047.287075c-.623378 1.531062-1.294708 2.990356-2.01399 4.377882-.719282.047846-1.798206.071768-3.23677.071768-1.918086 0-3.884125-.047845-5.898115-.143537-.239761 1.148297-.43157 2.547784-.575426 4.198461s-.191809 3.050164-.143856 4.198461c1.726277.526303 4.02798.789454 6.90511.789454zm50.452515-12.918341v-16.5067687l.071928-5.5979477h.215785l3.23677 4.8802621 11.148876 17.2244543h12.227799v-40.9080792h-11.940086v22.678865h-.215785c-.863139-1.6745997-2.109895-3.7319651-3.740268-6.1720962l-10.861162-16.5067688h-12.155871v40.9080792zm62.557009 0v-9.47345h-16.759277v-31.4346292h-12.947082v40.9080792z" transform="translate(540 30)"/>
</g></svg>
